<?xml version="1.0" standalone="no"?>
<!DOCTYPE svg PUBLIC "-//W3C//DTD SVG 20010904//EN"
 "http://www.w3.org/TR/2001/REC-SVG-20010904/DTD/svg10.dtd">
<svg version="1.0" xmlns="http://www.w3.org/2000/svg"
 width="1050.000000pt" height="1050.000000pt" viewBox="0 0 1050.000000 1050.000000"
 preserveAspectRatio="xMidYMid meet">
<metadata>
Created by potrace 1.11, written by Peter Selinger 2001-2013
</metadata>
<g transform="translate(0.000000,1050.000000) scale(0.100000,-0.100000)"
fill="#000000" stroke="none">
<path d="M0 9466 l0 -1033 42 -49 42 -49 -42 40 -42 39 0 -66 0 -67 55 -20
c31 -12 66 -21 80 -21 37 0 85 -32 85 -57 0 -61 47 -120 125 -160 38 -20 70
-27 136 -31 48 -2 103 -2 122 2 41 8 127 86 127 116 0 16 9 18 80 19 64 1 80
-2 80 -14 0 -20 58 -9 85 16 14 12 25 15 35 9 13 -8 13 -13 -1 -37 -12 -22
-21 -27 -45 -25 -16 1 -39 4 -51 5 -13 1 -23 5 -23 8 0 3 -7 6 -15 6 -11 0
-12 -4 -4 -14 6 -7 8 -13 4 -13 -4 0 -2 -6 4 -13 6 -8 8 -17 4 -20 -10 -11 12
-8 22 2 13 12 58 -6 50 -19 -5 -8 -12 -7 -23 2 -12 10 -16 10 -19 1 -6 -18
-28 -16 -43 2 -7 8 -16 15 -21 15 -19 0 -7 -31 24 -62 18 -18 39 -48 46 -66
24 -58 128 -130 191 -132 17 -1 34 -14 55 -43 36 -50 139 -107 194 -107 40 0
161 39 161 52 0 4 7 8 16 8 8 0 13 3 10 8 -2 4 2 16 10 27 14 19 14 19 29 -1
15 -18 15 -17 10 16 -4 32 -1 38 44 75 57 46 77 55 68 32 -7 -18 20 -77 41
-91 23 -14 42 -72 62 -194 17 -97 40 -190 76 -300 4 -9 -3 -2 -15 16 -11 17
-23 32 -26 32 -28 0 102 -252 225 -435 25 -38 55 -92 65 -120 9 -27 28 -61 41
-76 13 -14 24 -30 24 -35 0 -6 9 -19 20 -29 11 -10 17 -22 14 -26 -3 -5 -54
-9 -114 -9 -137 0 -221 -19 -330 -76 -88 -45 -221 -156 -296 -246 -21 -26 -48
-50 -59 -53 -11 -4 -35 -14 -54 -22 -26 -12 -53 -14 -108 -10 -40 3 -73 2 -73
-2 0 -9 78 -41 98 -41 17 0 15 -8 -9 -33 -47 -48 -168 -204 -184 -237 -10 -19
-37 -57 -59 -85 -23 -27 -55 -68 -71 -90 -16 -22 -54 -69 -83 -104 -76 -90
-132 -212 -102 -223 5 -2 -1 -37 -14 -83 -72 -244 -70 -234 -73 -385 -4 -193
17 -341 64 -470 41 -112 115 -250 145 -271 15 -11 37 -33 49 -50 19 -27 19
-32 7 -47 -21 -24 -19 -87 3 -140 20 -46 20 -46 0 -28 -48 44 -104 187 -126
323 -6 39 -25 71 -25 43 0 -27 -19 4 -30 50 -12 49 -32 81 -24 38 2 -13 2 -17
-2 -10 -7 14 -34 16 -34 3 0 -16 51 -154 65 -176 7 -11 18 -43 23 -70 24 -112
88 -215 189 -304 32 -27 74 -71 93 -97 19 -25 54 -57 78 -71 23 -14 42 -30 42
-36 0 -23 51 -122 88 -170 21 -28 67 -69 107 -95 67 -44 73 -46 145 -46 72 -1
78 1 138 41 35 23 80 45 100 49 54 10 115 33 123 46 4 7 34 13 66 15 127 6
206 47 323 167 56 59 43 59 -32 0 -60 -47 -82 -53 -28 -7 43 36 77 109 91 191
8 50 15 68 23 61 70 -57 112 -89 118 -89 3 0 17 -17 29 -37 12 -21 35 -53 51
-71 15 -18 28 -39 28 -46 0 -18 145 -351 190 -436 10 -19 27 -57 38 -85 11
-27 38 -88 60 -135 28 -59 36 -87 28 -92 -7 -5 3 -21 30 -45 23 -21 68 -78
100 -128 32 -49 96 -126 141 -170 45 -44 98 -105 119 -135 20 -30 49 -68 64
-85 15 -16 30 -38 33 -48 4 -9 17 -21 31 -27 13 -5 27 -13 30 -19 3 -5 21 -8
40 -5 22 2 38 -1 46 -11 7 -8 20 -15 29 -15 13 1 11 5 -7 20 l-23 19 23 12
c13 7 33 18 46 25 13 6 73 60 134 120 113 110 160 152 239 213 92 72 214 205
251 276 21 39 50 88 65 111 80 117 103 154 128 204 16 30 48 90 73 134 24 43
46 90 48 105 7 35 75 175 113 231 17 25 31 49 31 54 0 5 12 25 28 45 15 20 32
43 37 52 38 63 98 139 127 160 29 22 39 24 80 18 26 -4 84 -25 130 -47 46 -23
97 -44 113 -48 17 -4 57 -21 90 -40 33 -18 105 -49 160 -69 55 -20 127 -50
160 -65 122 -57 239 -100 315 -114 142 -26 443 -135 558 -202 58 -34 108 -73
177 -139 43 -41 55 -61 68 -111 10 -33 17 -94 17 -136 0 -67 -3 -81 -31 -124
-17 -27 -56 -92 -86 -144 -30 -52 -66 -111 -79 -131 -23 -33 -36 -63 -77 -174
-28 -76 -75 -240 -86 -295 -5 -30 -13 -73 -17 -95 -12 -65 -14 -98 -13 -358 0
-197 -3 -264 -17 -325 -9 -42 -21 -85 -26 -96 -16 -30 -94 -129 -123 -156 -28
-26 -119 -156 -136 -194 -5 -11 -27 -43 -49 -71 -22 -27 -40 -60 -40 -73 0
-13 -34 -76 -75 -140 -96 -149 -194 -345 -244 -489 l-40 -113 1732 3 1732 2 1
85 c1 47 7 143 13 215 6 72 10 222 10 335 -1 150 4 230 16 300 20 110 33 338
23 401 -8 55 -35 228 -53 339 -8 47 -19 103 -24 125 -36 144 -55 203 -76 244
-26 50 -125 298 -125 314 0 26 -92 214 -146 297 -34 52 -94 156 -134 230 -80
147 -163 281 -217 347 -19 23 -51 69 -71 102 -20 32 -63 98 -96 147 -96 145
-145 254 -115 254 5 0 9 5 9 11 0 6 -7 8 -16 5 -12 -5 -15 -2 -10 10 4 10 1
14 -6 12 -13 -5 -77 119 -147 287 -23 55 -55 125 -71 156 -17 31 -30 63 -30
71 0 9 -9 36 -21 62 -14 32 -26 101 -39 219 -28 251 -42 309 -105 438 -18 36
-38 84 -45 105 -7 21 -37 88 -66 149 -30 60 -54 115 -54 121 0 6 -46 51 -103
100 -56 49 -119 107 -138 129 -70 78 -134 223 -145 327 -6 58 -4 70 17 106 34
57 67 81 479 356 294 196 474 325 600 432 103 86 242 239 271 297 60 118 141
239 217 320 150 164 208 322 168 458 -13 46 -24 61 -73 100 -32 25 -74 55 -93
66 -41 25 -273 119 -375 153 -38 13 -79 27 -90 31 -37 15 -138 51 -290 102
-82 28 -144 52 -137 54 20 7 14 23 -10 23 -65 1 -198 43 -240 76 -21 17 -24
24 -15 34 10 10 6 11 -18 7 -31 -5 -69 10 -121 49 -17 12 -44 26 -60 30 -16 4
-47 17 -69 30 -38 21 -207 98 -400 180 -82 36 -98 39 -180 39 -89 0 -90 0
-152 -42 -33 -23 -70 -54 -81 -67 -10 -14 -31 -28 -46 -32 -48 -12 -96 -124
-64 -149 16 -12 40 -81 68 -195 22 -85 26 -248 7 -266 -4 -5 -22 -3 -39 4 -26
9 -35 9 -47 -2 -22 -19 -135 -56 -172 -56 -17 0 -38 -4 -48 -10 -10 -5 -36
-10 -57 -11 -82 -4 -173 -30 -261 -73 -50 -25 -95 -46 -100 -46 -16 0 -130
-60 -143 -75 -10 -12 -18 -11 -58 6 -26 11 -51 25 -57 32 -12 14 -224 87 -253
87 -11 0 -53 16 -92 35 -68 32 -71 34 -44 40 16 3 45 10 64 15 19 5 61 12 94
15 32 3 68 11 80 17 11 6 42 10 68 9 42 -2 48 0 48 19 0 11 -6 20 -12 21 -35
3 -87 -4 -123 -17 -22 -7 -59 -14 -81 -14 -23 0 -81 -11 -130 -26 l-88 -25
-99 31 c-54 18 -126 44 -160 60 l-62 28 45 6 c25 3 56 7 70 8 14 2 29 12 34
24 8 19 39 36 139 79 18 8 46 23 62 35 17 11 38 20 47 20 9 0 38 18 63 40 25
22 76 54 113 72 37 18 69 36 70 40 2 4 9 8 17 8 21 0 38 28 31 54 -9 37 -72
93 -142 126 -69 33 -106 37 -161 16 -21 -8 -60 -17 -88 -20 -43 -5 -47 -4 -25
6 14 6 67 32 119 56 79 38 97 43 113 33 14 -9 23 -9 33 -1 9 8 34 1 96 -28 46
-22 116 -49 154 -62 39 -12 93 -33 121 -45 49 -22 51 -22 74 -5 13 10 29 16
34 14 6 -1 38 -5 71 -8 33 -2 89 -9 125 -16 77 -13 297 -8 358 8 32 9 48 9 63
1 27 -14 50 4 30 24 -9 9 -58 11 -195 9 -132 -3 -209 1 -277 12 -52 9 -134 21
-184 26 -93 12 -166 37 -144 51 7 4 3 7 -12 7 -13 0 -41 5 -61 11 -21 6 -53
15 -72 20 -18 4 -58 20 -89 35 -31 14 -71 26 -89 26 -18 0 -85 -23 -148 -51
-63 -28 -137 -56 -165 -61 -27 -5 -58 -17 -67 -25 -19 -17 -24 -43 -10 -43 5
0 8 -10 8 -22 -2 -54 117 -65 211 -20 75 35 145 36 190 3 17 -13 29 -29 26
-37 -3 -7 4 -25 16 -40 20 -26 20 -44 0 -44 -21 0 -165 -72 -189 -94 -30 -28
-297 -166 -321 -166 -9 0 -40 -8 -69 -17 -50 -16 -53 -16 -66 2 -7 10 -33 26
-56 37 -26 12 -71 49 -115 96 -57 61 -74 75 -84 65 -10 -10 -23 -3 -63 33
-104 92 -117 106 -112 119 3 9 0 12 -10 8 -7 -3 -14 0 -14 6 0 6 -5 11 -11 11
-7 0 -31 16 -54 35 -23 19 -62 45 -86 58 -24 13 -60 39 -80 58 -33 32 -114 69
-149 69 -9 0 -31 16 -50 36 -19 20 -49 43 -68 51 -27 11 -31 17 -22 28 14 17
4 23 -35 21 -16 -1 -44 4 -62 11 -18 7 -42 13 -53 13 -17 0 -20 -4 -15 -22 3
-13 3 -18 -2 -12 -13 17 -41 24 -46 11 -3 -8 -9 -7 -18 5 -21 26 -201 114
-261 128 -29 6 -62 15 -73 20 -39 16 -123 20 -129 5 -3 -8 -13 -11 -26 -8 -11
3 -18 8 -16 11 9 9 -28 31 -51 32 -12 0 -44 -7 -70 -16 -43 -15 -49 -15 -76 1
-30 18 -41 14 -51 -20 -4 -15 10 -47 49 -109 30 -48 55 -93 55 -100 0 -8 9
-35 21 -61 34 -77 15 -62 -27 22 -23 46 -47 79 -57 81 -10 2 -17 -3 -17 -13 0
-21 -13 -19 -28 6 -10 15 -21 20 -38 16 -16 -3 -23 0 -21 7 2 6 10 11 18 12
38 3 47 5 64 18 16 12 17 16 6 30 -7 9 -22 16 -32 16 -11 0 -19 7 -19 15 0 20
-36 38 -61 30 -18 -6 -19 -4 -10 13 10 19 -2 42 -22 42 -15 0 -79 -60 -111
-103 l-30 -40 23 -18 c14 -11 23 -30 23 -49 1 -42 -16 -58 -34 -31 -19 27 -74
25 -74 -3 1 -10 -5 -21 -13 -24 -10 -3 -12 0 -7 13 8 23 -14 75 -33 75 -30 0
-88 -25 -151 -66 -36 -23 -75 -45 -88 -48 -12 -4 -22 -14 -22 -22 0 -11 -6
-13 -23 -8 -12 4 -28 7 -34 7 -7 0 -13 9 -13 19 0 19 -3 20 -95 24 -33 2 -84
10 -112 18 -66 19 -180 82 -194 107 -5 10 -15 19 -22 19 -30 0 -245 125 -234
136 2 2 18 0 35 -5 29 -9 33 -7 38 15 8 32 -1 41 -71 69 -59 24 -104 53 -168
108 l-38 33 15 64 c39 174 32 250 -51 539 -19 68 -74 172 -122 231 -84 104
-146 167 -194 198 -28 17 -55 39 -60 47 -7 13 -55 15 -332 15 l-325 0 0 -1034z
m790 833 c16 -28 9 -24 -35 23 -38 40 -39 40 -7 19 17 -12 37 -31 42 -42z
m370 -1059 c19 -14 69 -57 110 -98 86 -84 159 -129 232 -142 55 -11 92 -36 84
-57 -3 -7 -1 -13 3 -13 5 0 11 5 13 12 3 7 10 8 17 4 9 -6 10 -11 2 -15 -6 -4
5 -8 25 -8 20 -1 41 -6 47 -12 8 -8 -2 -10 -38 -5 -87 11 -177 46 -282 109
-63 38 -97 44 -111 19 -7 -13 -23 -1 -82 63 -76 81 -93 111 -103 177 l-6 39
27 -25 c15 -14 43 -35 62 -48z m1922 -142 c12 -6 16 -16 12 -36 -4 -21 2 -34
26 -59 35 -37 41 -59 10 -43 -24 13 -49 59 -53 100 -5 39 -11 44 -36 31 -12
-7 -18 -17 -15 -26 4 -8 1 -15 -6 -15 -7 0 -9 -8 -5 -19 3 -11 1 -22 -4 -25
-5 -4 -7 -23 -5 -44 l6 -37 -26 28 c-29 31 -34 49 -12 41 25 -9 28 16 8 54
l-20 38 22 11 c25 12 74 13 98 1z m-557 -57 l2 -51 -38 22 -38 21 32 33 c17
19 33 32 35 30 2 -3 5 -27 7 -55z m815 -41 c14 -11 31 -20 38 -20 7 0 11 -4 7
-9 -3 -5 -6 -33 -7 -62 l-1 -52 -19 39 c-37 73 -57 124 -50 124 4 0 18 -9 32
-20z m-789 -13 c-10 -9 -11 -8 -5 6 3 10 9 15 12 12 3 -3 0 -11 -7 -18z m339
-56 c0 -8 7 -23 17 -33 9 -10 14 -21 11 -24 -8 -8 -48 60 -48 82 0 16 2 17 10
4 5 -8 10 -21 10 -29z m611 6 c9 -7 14 -17 12 -23 -2 -6 3 -27 12 -47 8 -20
15 -39 15 -42 0 -3 7 -19 16 -36 11 -23 12 -30 3 -27 -7 2 -26 38 -42 79 -16
41 -33 82 -38 92 -11 20 -1 22 22 4z m-791 -27 c0 -5 -4 -10 -10 -10 -5 0 -10
5 -10 10 0 6 5 10 10 10 6 0 10 -4 10 -10z m900 -21 c29 -24 30 -27 7 -13 -28
17 -54 11 -27 -6 13 -8 13 -10 -1 -10 -9 0 -19 8 -23 18 -3 9 -9 23 -12 30
-11 23 21 12 56 -19z m-1260 -26 l21 -38 -30 32 c-32 33 -37 43 -22 43 5 0 19
-17 31 -37z m840 -27 c0 -5 -7 -3 -15 4 -8 7 -15 22 -15 34 1 20 2 20 15 -4 8
-14 14 -29 15 -34z m-655 4 c-3 -5 -1 -11 5 -15 5 -3 10 -12 10 -18 0 -7 -11
1 -25 17 -25 29 -25 57 1 35 7 -6 12 -15 9 -19z m-427 -12 c-3 -35 -16 -51
-33 -40 -5 3 -16 7 -24 9 -18 2 -59 43 -44 43 7 0 15 -4 18 -10 9 -15 19 -12
45 10 32 28 40 25 38 -12z m1487 12 c3 -5 -1 -10 -9 -10 -9 0 -16 5 -16 10 0
6 4 10 9 10 6 0 13 -4 16 -10z m95 -30 c0 -11 -4 -20 -9 -20 -5 0 -7 9 -4 20
3 11 7 20 9 20 2 0 4 -9 4 -20z m-1277 -29 c22 -37 22 -64 1 -36 -9 11 -22 32
-30 47 -20 38 6 28 29 -11z m-58 9 c-3 -5 2 -13 10 -18 9 -5 17 -15 18 -23 2
-8 6 -20 10 -26 5 -7 5 -13 2 -13 -9 0 -35 27 -35 36 0 4 -7 15 -16 25 -16 18
-11 44 7 33 5 -3 7 -9 4 -14z m1385 -5 c0 -12 -29 -3 -34 10 -4 13 -2 14 14 5
11 -6 20 -13 20 -15z m-534 -21 c-21 -20 -28 -17 -14 5 7 11 16 17 20 15 5 -3
2 -12 -6 -20z m483 -5 c-16 -10 -23 -4 -14 10 3 6 11 8 17 5 6 -4 5 -9 -3 -15z
m170 -3 c6 -7 3 -19 -9 -33 l-18 -22 -9 38 c-9 35 -8 38 8 34 10 -3 23 -10 28
-17z m-1681 -17 c19 -31 9 -33 -18 -4 -16 17 -19 25 -9 25 8 0 20 -9 27 -21z
m1487 -23 c0 -13 -3 -22 -7 -19 -5 2 -8 13 -8 24 0 10 3 19 8 19 4 0 7 -11 7
-24z m-785 -17 c0 -18 -2 -20 -15 -9 -13 11 -13 15 -3 21 18 12 18 12 18 -12z
m244 5 c3 -8 2 -12 -4 -9 -6 3 -10 10 -10 16 0 14 7 11 14 -7z m756 -6 c0 -19
2 -20 10 -8 8 12 10 12 10 1 0 -8 8 -20 18 -28 16 -13 15 -14 -5 -8 -13 4 -23
2 -23 -3 0 -5 -11 -9 -24 -9 -28 0 -39 30 -21 60 14 24 35 21 35 -5z m-929
-15 c13 -16 12 -17 -3 -4 -10 7 -18 15 -18 17 0 8 8 3 21 -13z m729 -7 c0 -3
-4 -8 -10 -11 -5 -3 -10 -1 -10 4 0 6 5 11 10 11 6 0 10 -2 10 -4z m2761 -37
c-9 -22 -10 -22 -10 -3 -1 11 2 24 6 27 12 12 14 0 4 -24z m-3491 -20 c0 -5
-4 -9 -8 -9 -5 0 -9 7 -9 15 0 8 4 12 9 9 4 -3 8 -9 8 -15z m1163 -46 c19 -38
21 -53 7 -53 -8 0 -49 68 -69 114 -11 25 47 -32 62 -61z m2313 -34 l5 -34 -24
35 c-17 24 -21 37 -13 42 16 10 27 -4 32 -43z m-2846 25 c0 -2 -7 -4 -15 -4
-8 0 -15 4 -15 10 0 5 7 7 15 4 8 -4 15 -8 15 -10z m140 -14 c0 -5 -2 -10 -4
-10 -3 0 -8 5 -11 10 -3 6 -1 10 4 10 6 0 11 -4 11 -10z m-996 -90 c-7 -6 -24
22 -23 40 0 9 6 5 14 -10 7 -14 11 -27 9 -30z m4375 48 c-2 -2 -17 -14 -34
-28 l-30 -25 24 28 c14 15 29 27 34 27 6 0 8 -1 6 -2z m-4341 -30 c16 -16 15
-29 -2 -22 -16 6 -30 34 -18 34 5 0 13 -5 20 -12z m1482 -58 c13 -8 13 -10 -2
-10 -9 0 -20 5 -23 10 -8 13 5 13 25 0z m35 -50 c3 -5 2 -10 -4 -10 -5 0 -13
5 -16 10 -3 6 -2 10 4 10 5 0 13 -4 16 -10z m134 -97 l24 -23 -26 0 c-14 0
-29 -5 -32 -10 -4 -6 -22 10 -41 35 -19 25 -32 50 -29 55 7 12 66 -20 104 -57z
m-562 -73 c6 -16 8 -30 4 -30 -3 0 -12 14 -18 30 -6 17 -8 30 -4 30 3 0 12
-13 18 -30z m565 8 c-7 -7 -12 -20 -12 -30 0 -27 -17 -22 -22 7 -6 29 -2 35
26 35 15 0 17 -3 8 -12z m-4008 -4 c9 -3 16 -12 16 -20 0 -8 4 -14 8 -14 5 0
17 -18 28 -40 18 -38 45 -52 59 -31 3 6 14 9 25 8 28 -2 7 -23 -37 -38 -33
-10 -37 -9 -67 20 -27 26 -76 102 -76 117 0 6 26 5 44 -2z m4077 -7 c-1 -4 -1
-17 -1 -29 0 -27 -5 -21 -14 15 -5 20 -3 28 4 25 6 -2 11 -7 11 -11z m-168
-27 c3 -11 1 -20 -4 -20 -5 0 -9 4 -9 9 0 5 -3 17 -7 27 -4 11 -3 15 4 11 6
-4 13 -16 16 -27z m-3778 10 c4 -7 -3 -8 -22 -4 -38 9 -42 14 -10 14 14 0 29
-5 32 -10z m130 -30 c-10 -11 -23 -20 -29 -20 -6 1 0 10 13 20 30 26 39 26 16
0z m3885 -11 c0 -12 7 -19 18 -18 10 0 12 3 5 6 -7 2 -13 9 -13 14 0 5 12 3
26 -3 23 -11 25 -15 18 -52 -3 -22 -12 -45 -19 -51 -8 -5 -15 -19 -17 -30 -2
-11 -11 21 -19 72 -9 51 -12 90 -7 87 4 -3 8 -14 8 -25z m-2425 11 c3 -6 -1
-7 -9 -4 -18 7 -21 14 -7 14 6 0 13 -4 16 -10z m-1589 -12 c4 -7 3 -8 -4 -4
-7 4 -12 2 -12 -5 0 -7 -3 -10 -6 -6 -6 5 3 27 11 27 2 0 7 -5 11 -12z m3867
-8 c3 -11 1 -18 -4 -14 -5 3 -9 12 -9 20 0 20 7 17 13 -6z m-1325 -12 c19 -19
14 -29 -8 -16 -20 13 -27 28 -12 28 4 0 13 -5 20 -12z m802 -3 c0 -9 7 -27 16
-40 9 -14 12 -25 6 -25 -13 0 -21 12 -32 50 -5 18 -5 30 1 30 5 0 9 -7 9 -15z
m-995 -24 c3 -5 1 -12 -5 -16 -5 -3 -10 1 -10 9 0 18 6 21 15 7z m1235 -21 c0
-5 -2 -10 -4 -10 -3 0 -8 5 -11 10 -3 6 -1 10 4 10 6 0 11 -4 11 -10z m-2510
-10 c0 -5 -10 -10 -22 -10 -19 0 -20 2 -8 10 19 13 30 13 30 0z m1310 -5 c7
-8 8 -15 2 -15 -5 0 -15 7 -22 15 -7 8 -8 15 -2 15 5 0 15 -7 22 -15z m3540 1
c41 0 130 1 197 3 67 1 130 -3 140 -8 25 -14 167 -39 282 -51 116 -12 209 -28
236 -39 11 -5 36 -15 55 -22 19 -7 65 -27 102 -45 78 -38 208 -84 236 -84 21
0 143 -58 153 -73 4 -5 10 -28 13 -49 5 -33 2 -49 -20 -86 -38 -64 -101 -130
-147 -153 -29 -15 -38 -25 -35 -42 4 -34 -6 -43 -105 -91 -51 -25 -126 -63
-167 -86 -257 -143 -359 -194 -432 -214 -29 -7 -118 -36 -198 -64 -80 -27
-170 -57 -200 -66 -82 -25 -140 -50 -300 -129 -167 -83 -221 -129 -274 -236
-53 -104 -136 -174 -258 -217 -37 -13 -38 -13 -53 16 -9 17 -21 30 -28 30 -16
0 -97 81 -97 97 0 6 -11 18 -25 27 -14 9 -25 20 -25 24 0 4 20 14 45 21 42 12
77 11 166 -4 55 -10 164 40 188 86 43 82 31 152 -38 211 -36 31 -38 35 -24 53
58 78 104 230 116 384 6 78 -17 165 -70 269 -21 41 -38 81 -38 90 0 9 -5 17
-10 17 -6 0 -43 32 -81 70 -79 78 -118 109 -151 119 -43 14 -21 40 41 49 22 4
71 22 110 41 111 54 170 75 264 92 172 30 192 35 239 53 33 13 59 17 83 12 19
-3 69 -6 110 -5z m-2332 -31 c-3 -3 -9 2 -12 12 -6 14 -5 15 5 6 7 -7 10 -15
7 -18z m672 -15 c0 -5 5 -10 11 -10 5 0 7 5 3 11 -6 10 24 8 77 -7 22 -6 19
-102 -5 -139 -10 -15 -13 -24 -7 -21 7 5 11 -1 11 -14 0 -14 -4 -19 -12 -14
-8 5 -9 2 -4 -12 4 -10 4 -15 0 -12 -9 9 -44 -9 -44 -23 0 -6 6 -7 13 -3 9 5
9 4 0 -6 -16 -17 -19 -13 -28 28 -5 25 -3 32 9 32 9 0 16 6 16 14 0 8 3 22 7
31 5 15 3 16 -17 5 -30 -16 -50 2 -32 30 9 16 9 18 -2 14 -9 -4 -15 7 -19 38
-3 24 -2 44 4 46 5 2 7 8 3 13 -3 5 0 9 5 9 6 0 11 -4 11 -10z m-3385 -10 c-3
-5 -11 -10 -16 -10 -6 0 -7 5 -4 10 3 6 11 10 16 10 6 0 7 -4 4 -10z m-127
-19 c3 -8 -1 -12 -9 -9 -7 2 -15 10 -17 17 -3 8 1 12 9 9 7 -2 15 -10 17 -17z
m85 2 c-7 -2 -19 -2 -25 0 -7 3 -2 5 12 5 14 0 19 -2 13 -5z m3671 -19 c11 -8
21 -21 22 -31 11 -71 15 -87 19 -91 3 -3 1 -10 -5 -16 -5 -7 -5 -17 2 -26 8
-12 9 -11 4 4 -5 15 -4 17 8 7 8 -6 12 -20 9 -31 -6 -23 -33 -49 -33 -31 0 6
5 11 10 11 6 0 10 5 10 11 0 5 -4 7 -10 4 -5 -3 -10 -1 -10 4 0 6 -5 10 -11 9
-6 -2 -13 4 -15 12 -1 8 -12 44 -23 79 -11 35 -18 68 -16 72 3 4 -2 9 -10 13
-8 3 -15 10 -15 15 0 11 38 2 64 -15z m-434 -21 c0 -1 -5 -5 -12 -9 -6 -4 -8
-3 -5 3 4 6 0 13 -8 17 -8 3 -15 10 -15 16 0 5 9 2 20 -7 11 -10 20 -18 20
-20z m-3248 -14 c-19 -7 -27 4 -18 28 6 14 8 14 21 -3 12 -17 11 -20 -3 -25z
m-339 14 c-6 -26 87 -61 112 -43 6 4 23 -1 39 -11 l29 -18 -27 -7 c-53 -13
-124 1 -164 33 -48 39 -55 66 -15 61 15 -2 27 -8 26 -15z m639 -13 c-5 -32
-22 -52 -22 -25 0 15 17 55 24 55 1 0 1 -14 -2 -30z m3468 6 c0 -3 -4 -8 -10
-11 -5 -3 -10 -1 -10 4 0 6 5 11 10 11 6 0 10 -2 10 -4z m-2930 -66 c3 -4 24
-17 48 -29 23 -12 42 -23 42 -25 0 -9 -80 27 -97 43 -10 9 -35 25 -55 34 -21
10 -38 22 -38 28 0 10 90 -36 100 -51z m-311 23 c2 -2 -3 -3 -11 -3 -9 0 -19
7 -22 16 -6 15 -4 15 11 3 10 -7 20 -15 22 -16z m2742 -20 c7 -23 8 -38 1 -45
-6 -6 -6 -20 1 -39 8 -21 8 -32 -1 -41 -9 -9 -13 -7 -18 7 -5 12 -3 20 5 23 7
2 9 7 5 11 -5 3 -22 29 -37 58 -25 47 -26 52 -10 61 25 15 41 4 54 -35z
m-1781 7 c0 -5 -2 -10 -4 -10 -3 0 -8 5 -11 10 -3 6 -1 10 4 10 6 0 11 -4 11
-10z m2401 -42 c-4 -12 -4 -40 1 -62 6 -28 5 -47 -3 -63 -16 -29 -43 -31 -34
-3 4 13 2 20 -7 20 -8 0 -12 11 -11 32 1 18 2 54 2 81 l1 48 30 -16 c24 -13
28 -19 21 -37z m-2281 11 c0 -5 -4 -9 -8 -9 -5 0 -9 7 -9 15 0 8 4 12 9 9 4
-3 8 -9 8 -15z m-1697 -39 c-3 -11 -9 -20 -14 -20 -10 0 -12 24 -2 33 13 13
21 7 16 -13z m4210 -11 c15 -11 32 -19 39 -17 7 2 14 -2 14 -7 2 -20 -19 -55
-34 -55 -8 0 -12 -6 -8 -15 3 -9 -1 -15 -11 -15 -12 0 -13 -3 -4 -14 8 -10 9
-16 1 -21 -6 -3 -8 -10 -6 -14 3 -4 1 -21 -4 -37 -7 -23 -9 -15 -8 41 1 101 0
112 -17 119 -10 4 -22 -5 -35 -27 -11 -17 -20 -30 -21 -27 -6 28 -3 79 5 93
14 23 57 22 89 -4z m-4215 -15 c3 3 14 -2 25 -11 11 -10 17 -12 13 -5 -13 21
4 13 30 -15 l25 -28 -7 40 c-6 35 -5 38 8 27 9 -7 22 -11 29 -9 8 2 11 2 7 0
-5 -3 -8 -9 -8 -14 0 -13 33 -6 64 15 36 23 46 13 17 -18 -24 -25 -82 -46
-127 -46 -41 1 -117 37 -108 51 4 8 3 9 -4 5 -7 -4 -17 -4 -23 0 -19 11 13 24
34 12 10 -5 21 -7 25 -4z m713 -31 c13 -15 12 -15 -8 -4 -24 12 -29 21 -14 21
5 0 15 -7 22 -17z m-102 -66 c-10 -11 -18 -7 -41 16 -15 17 -28 31 -28 32 0 1
11 0 25 -3 17 -3 25 0 25 9 1 8 8 2 16 -14 11 -21 12 -30 3 -40z m181 38 c17
-9 30 -21 30 -27 0 -6 -9 -3 -19 6 -11 10 -31 19 -45 20 -14 0 -26 4 -26 9 0
12 29 8 60 -8z m2787 -7 c-3 -8 -6 -5 -6 6 -1 11 2 17 5 13 3 -3 4 -12 1 -19z
m248 12 c-3 -5 -12 -10 -18 -10 -7 0 -6 4 3 10 19 12 23 12 15 0z m-3185 -16
c0 -8 -4 -12 -10 -9 -5 3 -10 10 -10 16 0 5 5 9 10 9 6 0 10 -7 10 -16z m2165
-10 l25 -25 -27 3 c-20 2 -27 8 -25 20 1 9 -5 19 -15 21 -16 4 -16 5 -1 6 9 0
29 -11 43 -25z m160 -8 c8 -7 11 -17 7 -21 -4 -4 -2 -5 3 -4 15 4 78 -12 92
-23 7 -6 26 -11 43 -13 21 -1 42 -15 70 -45 22 -24 38 -45 36 -47 -2 -2 -23 3
-47 11 -24 8 -62 17 -84 20 -22 3 -60 8 -85 12 -25 3 -90 7 -145 9 -55 2 -134
10 -175 19 -41 9 -79 16 -84 16 -5 0 -6 3 -3 7 4 3 46 7 94 9 72 2 94 -1 119
-17 43 -26 52 -24 24 6 l-23 25 25 0 c15 0 28 -5 30 -11 2 -7 13 -9 25 -5 30
10 66 43 58 55 -9 16 4 13 20 -3z m1387 -14 c3 -11 -3 -36 -14 -58 -26 -53
-38 -64 -34 -28 12 91 36 133 48 86z m-3692 -9 c-1 -18 -18 -35 -24 -24 -4 6
-2 11 4 11 6 0 8 5 5 10 -3 6 -1 10 4 10 6 0 11 -3 11 -7z m2230 -13 c0 -5 -4
-10 -10 -10 -5 0 -10 5 -10 10 0 6 5 10 10 10 6 0 10 -4 10 -10z m-2286 -46
c3 -8 2 -12 -4 -9 -6 3 -10 10 -10 16 0 14 7 11 14 -7z m1368 -24 c33 -16 69
-30 79 -30 10 0 19 -4 19 -10 0 -5 -10 -10 -21 -10 -26 0 -149 59 -149 71 0
13 6 12 72 -21z m538 10 c8 -5 11 -10 5 -10 -5 0 -17 5 -25 10 -8 5 -10 10 -5
10 6 0 17 -5 25 -10z m-906 -20 c39 -15 32 -30 -9 -18 -19 6 -32 15 -29 20 6
10 7 10 38 -2z m-919 -60 c13 -19 33 -45 44 -57 22 -23 22 -23 1 -23 -11 0
-19 6 -17 13 1 6 -5 12 -13 12 -24 0 -41 22 -56 71 -13 42 -12 45 3 33 8 -8
26 -30 38 -49z m1918 53 c-7 -2 -19 -2 -25 0 -7 3 -2 5 12 5 14 0 19 -2 13 -5z
m702 -3 c3 -5 1 -10 -4 -10 -6 0 -11 5 -11 10 0 6 2 10 4 10 3 0 8 -4 11 -10z
m-642 -7 c-7 -2 -19 -2 -25 0 -7 3 -2 5 12 5 14 0 19 -2 13 -5z m44 -9 c-3 -3
-12 -4 -19 -1 -8 3 -5 6 6 6 11 1 17 -2 13 -5z m693 -15 c0 -6 -4 -7 -10 -4
-5 3 -10 11 -10 16 0 6 5 7 10 4 6 -3 10 -11 10 -16z m220 0 c0 -6 -4 -7 -10
-4 -5 3 -10 11 -10 16 0 6 5 7 10 4 6 -3 10 -11 10 -16z m-842 4 c-10 -2 -28
-2 -40 0 -13 2 -5 4 17 4 22 1 32 -1 23 -4z m159 1 c-3 -3 -12 -4 -19 -1 -8 3
-5 6 6 6 11 1 17 -2 13 -5z m-79 -11 c-10 -2 -28 -2 -40 0 -13 2 -5 4 17 4 22
1 32 -1 23 -4z m170 0 c-10 -2 -26 -2 -35 0 -10 3 -2 5 17 5 19 0 27 -2 18 -5z
m55 -10 c-7 -2 -19 -2 -25 0 -7 3 -2 5 12 5 14 0 19 -2 13 -5z m1307 3 c0 -2
-7 -7 -16 -10 -8 -3 -12 -2 -9 4 6 10 25 14 25 6z m-3425 -44 c-3 -3 -11 0
-18 7 -9 10 -8 11 6 5 10 -3 15 -9 12 -12z m905 -2 c36 -11 86 -20 112 -20 56
0 78 -7 78 -26 0 -11 -10 -13 -42 -8 -90 12 -228 54 -228 69 0 8 12 6 80 -15z
m640 -1 c0 -6 -4 -7 -10 -4 -5 3 -10 11 -10 16 0 6 5 7 10 4 6 -3 10 -11 10
-16z m170 7 c0 -2 -7 -7 -16 -10 -8 -3 -12 -2 -9 4 6 10 25 14 25 6z m-2017
-93 c0 -7 4 -10 8 -7 5 2 6 11 2 19 -9 25 9 17 49 -22 l38 -37 -26 -21 -26
-20 21 -27 c28 -35 27 -52 -1 -44 -13 3 -30 6 -40 6 -12 0 -18 14 -23 63 -4
34 -14 82 -21 107 -18 60 -16 85 3 35 8 -22 15 -45 16 -52z m1924 76 c6 -6 9
-19 6 -28 -4 -11 2 -8 20 8 29 27 36 18 12 -15 -8 -12 -12 -24 -8 -27 3 -4 -2
-9 -11 -13 -9 -3 -13 -11 -10 -18 3 -6 -5 3 -20 19 -14 17 -25 35 -25 40 0 6
7 0 16 -12 19 -28 38 -30 23 -3 -6 11 -8 25 -5 30 3 5 -3 13 -12 19 -10 6 -13
11 -7 11 5 0 15 -5 21 -11z m668 -7 c-3 -3 -11 0 -18 7 -9 10 -8 11 6 5 10 -3
15 -9 12 -12z m-311 -4 c-3 -5 -10 -6 -15 -3 -8 6 -13 -8 -10 -27 0 -5 -3 -8
-9 -8 -12 0 -13 6 -1 29 6 10 17 18 25 18 8 0 13 -4 10 -9z m-494 -13 c-7 -9
-15 -13 -19 -10 -3 3 1 10 9 15 21 14 24 12 10 -5z m90 10 c0 -7 -30 -13 -34
-7 -3 4 4 9 15 9 10 1 19 0 19 -2z m198 -7 c-2 -6 -12 -12 -21 -14 -9 -1 -15
2 -11 7 3 5 10 7 15 4 5 -4 9 -1 9 4 0 6 3 11 6 11 3 0 4 -5 2 -12z m-46 -37
c17 -6 34 -8 39 -5 12 7 11 -7 -1 -26 -8 -12 -10 -12 -16 3 -3 9 -11 17 -16
17 -6 0 -4 -8 3 -17 12 -15 12 -16 -3 -10 -15 5 -16 4 -5 -13 6 -11 18 -20 25
-20 7 0 10 4 7 10 -4 6 1 7 11 3 11 -4 15 -3 11 4 -4 6 -3 13 3 15 5 1 11 14
13 27 2 14 9 27 16 29 14 5 11 -20 -4 -30 -6 -5 -5 -8 4 -8 11 0 11 -3 0 -16
-10 -13 -10 -17 2 -25 11 -7 10 -9 -6 -10 l-20 0 20 -9 c16 -7 17 -9 3 -9 -13
-1 -16 -8 -11 -36 4 -22 2 -35 -5 -35 -13 0 -4 -31 12 -42 8 -5 7 -8 -1 -8 -7
0 -16 7 -20 15 -7 12 -14 10 -38 -12 -17 -17 -26 -21 -22 -11 5 14 -1 16 -36
15 -40 -2 -42 0 -42 26 1 15 -3 27 -7 27 -4 0 -6 6 -4 13 1 6 1 9 -1 5 -9 -15
-23 -8 -23 12 0 15 7 20 26 20 23 0 25 -3 20 -24 -6 -24 9 -45 22 -31 3 3 0
10 -8 15 -10 6 -11 10 -3 10 7 0 10 7 7 18 -5 16 -5 16 6 0 6 -10 20 -18 30
-18 13 0 20 -7 20 -20 0 -11 -5 -20 -11 -20 -5 0 -8 4 -4 9 3 5 2 12 -3 15
-18 11 -8 -25 11 -41 19 -17 20 -17 14 -1 -4 12 -2 15 8 12 7 -3 18 4 25 15
13 25 2 28 -15 4 -11 -14 -13 -13 -17 10 -3 15 -1 27 3 27 5 0 8 6 7 13 -2 7
5 11 17 9 16 -2 17 -1 5 7 -11 7 -20 5 -35 -9 -27 -25 -35 -25 -35 0 0 14 -5
18 -17 13 -12 -5 -14 -3 -8 8 7 12 6 12 -7 1 -11 -9 -18 -10 -23 -2 -3 5 -1
10 5 10 6 0 8 4 5 10 -4 7 3 7 20 0 28 -11 27 -5 -4 35 -10 13 -11 16 -1 8 8
-7 18 -13 22 -13 14 0 9 27 -7 40 -8 7 -12 17 -8 24 5 7 9 5 11 -6 2 -9 17
-21 34 -27z m798 -43 c0 -13 64 -103 83 -117 10 -7 16 -20 13 -28 -3 -8 -1
-11 4 -8 5 3 18 -3 30 -15 11 -11 25 -20 30 -20 6 0 10 -7 10 -15 0 -18 5 -19
29 -3 15 9 29 8 67 -4 49 -15 123 -8 152 14 8 7 12 7 12 -1 0 -6 -15 -17 -32
-25 -20 -9 -26 -15 -15 -15 9 -1 17 -5 17 -9 0 -18 -12 -19 -43 -4 -36 18 -46
20 -132 26 -33 3 -62 6 -65 7 -3 1 -8 1 -12 1 -3 -1 -12 5 -18 13 -7 8 -19 15
-27 15 -21 0 -114 90 -132 130 -30 62 -63 110 -72 104 -5 -3 -6 1 -3 9 4 12
16 8 54 -17 27 -17 50 -34 50 -38z m-1710 52 c0 -5 -7 -7 -15 -4 -8 4 -15 8
-15 10 0 2 7 4 15 4 8 0 15 -4 15 -10z m495 -23 c1 -15 -2 -27 -6 -27 -4 0 -5
-9 -2 -20 3 -11 12 -20 19 -20 8 0 14 -5 14 -11 0 -6 -7 -8 -16 -5 -9 3 -19 6
-23 6 -4 0 -7 14 -6 31 1 18 -4 33 -11 36 -10 4 -11 10 -3 25 14 26 34 18 34
-15z m83 -18 c4 -1 16 -3 27 -4 11 -2 28 -6 38 -10 12 -5 17 -3 15 5 -5 18 38
44 48 29 5 -8 3 -9 -6 -4 -10 6 -11 1 -6 -21 6 -26 5 -27 -7 -11 -19 23 -26
22 -20 -3 3 -10 8 -19 12 -18 3 0 14 0 25 -1 15 -1 16 -4 6 -15 -13 -16 -40
-10 -54 12 -7 12 -10 12 -17 1 -6 -11 -12 -9 -29 9 -22 23 -40 29 -40 12 0 -5
-8 -11 -17 -11 -16 -1 -16 -2 0 -6 11 -3 16 -11 13 -18 -3 -8 4 -24 15 -37 11
-13 18 -17 14 -10 -8 16 -4 15 31 -3 l29 -15 -33 0 c-45 0 -64 -18 -43 -41 8
-10 19 -15 24 -12 5 3 8 0 5 -8 -3 -8 -13 -16 -22 -17 -12 -3 -17 1 -14 9 3 8
-4 22 -13 33 -18 18 -17 42 1 31 13 -8 20 9 9 25 -8 13 -10 13 -19 0 -8 -13
-10 -12 -10 3 0 11 -5 16 -12 12 -7 -4 -5 0 4 7 11 9 14 19 8 28 -5 8 -7 17
-4 21 2 4 0 11 -6 14 -8 5 -7 11 1 21 9 11 8 15 -5 20 -9 3 -13 10 -10 15 3 5
16 -2 30 -16 14 -14 28 -26 32 -26z m25 38 c3 -7 -3 -13 -13 -13 -10 0 -16 6
-13 13 3 7 9 13 13 13 4 0 10 -6 13 -13z m167 -9 c18 -23 18 -38 -1 -38 -6 0
-7 5 -4 10 3 6 4 10 1 10 -3 0 -10 -9 -17 -21 -9 -18 -8 -20 8 -15 22 6 71
-18 54 -28 -6 -4 -11 -3 -11 2 0 6 -7 13 -16 16 -11 4 -15 2 -11 -8 5 -13 2
-13 -19 -4 -14 7 -23 17 -20 25 3 7 -1 13 -9 13 -9 0 -12 6 -8 17 4 11 8 12
11 5 7 -23 22 -12 18 13 -6 31 0 32 24 3z m840 -58 c14 -14 32 -41 40 -60 7
-19 29 -53 49 -74 l36 -40 -36 30 c-20 16 -44 48 -54 72 -18 45 -73 109 -90
103 -5 -1 -7 1 -3 4 4 4 3 17 -3 29 -6 11 0 8 13 -9 12 -16 34 -41 48 -55z
m-950 60 c0 -5 -7 -7 -15 -4 -8 4 -15 8 -15 10 0 2 7 4 15 4 8 0 15 -4 15 -10z
m380 1 c0 -6 -4 -13 -10 -16 -5 -3 -10 1 -10 9 0 9 5 16 10 16 6 0 10 -4 10
-9z m215 -19 c-8 -8 -25 10 -19 20 4 6 9 5 15 -3 4 -7 6 -15 4 -17z m110 18
c3 -5 2 -10 -4 -10 -5 0 -13 5 -16 10 -3 6 -2 10 4 10 5 0 13 -4 16 -10z
m-939 -28 c-17 -16 -18 -16 -5 5 7 12 15 20 18 17 3 -2 -3 -12 -13 -22z m638
19 c3 -5 -2 -15 -12 -22 -15 -12 -16 -12 -5 2 7 9 10 19 6 22 -3 4 -4 7 0 7 3
0 8 -4 11 -9z m96 5 c0 -3 -4 -8 -10 -11 -5 -3 -10 -1 -10 4 0 6 5 11 10 11 6
0 10 -2 10 -4z m356 -27 c4 -8 1 -8 -14 0 -12 6 -24 16 -28 22 -4 8 -1 8 14 0
12 -6 24 -16 28 -22z m-2541 3 c-3 -3 -11 0 -18 7 -9 10 -8 11 6 5 10 -3 15
-9 12 -12z m1295 11 c0 -14 -15 -29 -34 -36 -11 -4 -16 -13 -12 -22 4 -12 2
-13 -14 -3 -19 12 -18 14 15 34 19 11 32 24 28 27 -3 4 -1 7 5 7 7 0 12 -3 12
-7z m930 -3 c12 -7 10 -9 -8 -7 -12 0 -22 5 -22 9 0 11 12 10 30 -2z m440 -34
c0 -12 -5 -7 -19 24 -11 24 -11 24 3 6 9 -11 16 -24 16 -30z m810 22 c0 -13
-23 -5 -28 10 -2 7 2 10 12 6 9 -3 16 -11 16 -16z m-2333 -78 c15 -41 6 -38
-42 14 -50 54 -51 96 -1 47 17 -17 37 -44 43 -61z m1228 80 c3 -5 -1 -10 -10
-10 -9 0 -13 5 -10 10 3 6 8 10 10 10 2 0 7 -4 10 -10z m1201 -27 c-3 -4 -1
-12 5 -20 6 -7 8 -13 5 -13 -13 0 -36 28 -36 43 0 22 13 29 23 12 5 -9 6 -19
3 -22z m-3541 17 c-3 -5 -11 -10 -16 -10 -6 0 -7 5 -4 10 3 6 11 10 16 10 6 0
7 -4 4 -10z m2020 0 c-3 -5 4 -11 17 -11 17 -1 18 -3 5 -6 -9 -2 -15 -9 -12
-14 4 -5 2 -9 -2 -9 -5 0 -14 9 -20 19 -10 15 -10 21 0 24 18 8 19 8 12 -3z
m128 -4 c3 -8 -2 -20 -11 -28 -10 -8 -13 -8 -9 -1 4 6 3 14 -3 18 -11 7 -4 25
10 25 4 0 10 -6 13 -14z m347 -6 c0 -5 -2 -10 -4 -10 -3 0 -8 5 -11 10 -3 6
-1 10 4 10 6 0 11 -4 11 -10z m-400 -4 c0 -14 -13 -35 -20 -31 -4 3 -14 -3
-21 -12 -12 -14 -11 -15 10 -8 15 4 21 3 17 -3 -3 -5 1 -12 9 -16 8 -3 15 -1
15 5 0 6 7 9 15 5 9 -3 15 0 15 8 0 7 7 20 16 27 15 12 15 10 1 -24 -15 -35
-15 -37 4 -48 19 -10 19 -10 -3 -29 -26 -21 -37 -18 -18 4 10 13 9 19 -5 32
-13 13 -19 14 -25 5 -5 -9 -10 -10 -14 -2 -14 22 -28 11 -21 -16 5 -23 4 -25
-9 -14 -8 7 -20 10 -26 6 -16 -10 -12 6 6 27 15 16 15 18 1 24 -13 5 -12 10
10 35 23 26 43 37 43 25z m192 -36 c5 0 6 9 3 20 -3 11 -4 20 -1 20 13 0 56
-24 56 -32 0 -13 -18 -10 -23 5 -4 9 -8 8 -16 -3 -15 -21 -13 -33 4 -26 11 4
15 -1 15 -17 0 -23 -20 -62 -20 -39 0 32 -16 62 -33 62 -7 0 -13 12 -13 28 -2
26 -1 26 9 5 5 -13 14 -23 19 -23z m-689 16 c4 -10 1 -13 -9 -9 -7 3 -14 9
-14 14 0 14 17 10 23 -5z m1299 -2 c17 -16 17 -17 -8 -30 -38 -20 -60 -17 -77
9 -14 22 -14 23 16 25 17 2 33 5 36 7 7 8 14 6 33 -11z m-361 -17 c-10 -9 -11
-8 -5 6 3 10 9 15 12 12 3 -3 0 -11 -7 -18z m-2547 6 c4 -5 11 -8 15 -8 4 0
27 -19 51 -42 44 -44 39 -59 -7 -23 -14 11 -32 20 -39 20 -13 0 -44 37 -44 52
0 10 14 10 24 1z m1762 -30 c-5 -13 -9 -14 -15 -5 -4 8 -15 10 -27 6 -14 -6
-13 -2 6 14 27 22 47 15 36 -15z m684 20 c0 -9 -7 -10 -22 -4 -13 4 -29 6 -35
4 -7 -3 -13 0 -13 6 0 6 15 10 35 8 20 -1 35 -7 35 -14z m-830 -9 c0 -2 -7 -4
-15 -4 -8 0 -15 4 -15 10 0 5 7 7 15 4 8 -4 15 -8 15 -10z m1910 6 c0 -5 6 -7
13 -4 9 3 12 -6 9 -37 l-4 -41 -19 31 c-21 34 -25 61 -9 61 6 0 10 -4 10 -10z
m-2020 -25 c0 -7 6 -15 13 -18 6 -3 3 -5 -8 -4 -14 1 -20 8 -20 23 0 12 3 20
8 17 4 -2 7 -10 7 -18z m144 17 c3 -5 -1 -9 -9 -9 -8 0 -15 4 -15 9 0 4 4 8 9
8 6 0 12 -4 15 -8z m36 -28 c0 -13 -4 -24 -10 -24 -5 0 -7 -8 -3 -17 5 -14 3
-15 -6 -7 -10 9 -10 17 -1 34 6 12 9 28 6 36 -3 9 -1 12 4 9 6 -3 10 -17 10
-31z m570 -16 c0 -10 -5 -18 -10 -18 -6 0 -10 7 -8 16 2 10 -3 19 -11 22 -9 3
-11 0 -6 -9 6 -11 5 -11 -5 -2 -10 9 -10 14 1 26 12 12 15 12 26 -2 7 -9 13
-24 13 -33z m-775 32 c3 -5 1 -10 -4 -10 -6 0 -11 5 -11 10 0 6 2 10 4 10 3 0
8 -4 11 -10z m809 1 c3 -5 -1 -11 -9 -14 -9 -4 -12 -1 -8 9 6 16 10 17 17 5z
m113 -16 c-15 -16 -19 -13 -11 9 3 9 10 13 15 10 5 -3 3 -11 -4 -19z m-1487 5
c0 -5 -4 -10 -10 -10 -5 0 -10 5 -10 10 0 6 5 10 10 10 6 0 10 -4 10 -10z
m1584 1 c4 -5 -1 -8 -9 -7 -21 3 -31 16 -12 16 9 0 18 -4 21 -9z m83 -8 c0
-17 -5 -16 -23 1 -12 13 -12 15 4 13 10 0 19 -7 19 -14z m-1116 -10 c13 -16
12 -17 -3 -4 -10 7 -18 15 -18 17 0 8 8 3 21 -13z m249 7 c0 -5 -5 -10 -11
-10 -5 0 -7 5 -4 10 3 6 8 10 11 10 2 0 4 -4 4 -10z m716 -17 c-10 -10 -19 5
-10 18 6 11 8 11 12 0 2 -7 1 -15 -2 -18z m-1097 -37 c-1 -20 -2 -20 -6 -1 -3
11 -12 29 -22 40 -16 20 -16 20 7 1 12 -11 21 -29 21 -40z m458 -13 c2 -12 -1
-25 -8 -28 -7 -5 -9 3 -6 24 3 17 1 33 -4 37 -5 3 -9 13 -8 22 0 20 20 -21 26
-55z m18 49 c-3 -3 -11 0 -18 7 -9 10 -8 11 6 5 10 -3 15 -9 12 -12z m215 8
c0 -5 -2 -10 -4 -10 -3 0 -8 5 -11 10 -3 6 -1 10 4 10 6 0 11 -4 11 -10z
m-272 -24 c0 -19 -3 -22 -13 -13 -7 7 -10 18 -8 24 8 21 21 14 21 -11z m532 9
c11 -13 10 -14 -4 -9 -9 3 -16 10 -16 15 0 13 6 11 20 -6z m-1370 -16 c29 -6
24 -8 -30 -6 -36 0 -74 7 -85 14 -17 12 -13 12 30 7 28 -4 66 -10 85 -15z
m619 0 c4 -12 2 -12 -12 0 -12 9 -17 10 -17 2 0 -7 -5 -9 -11 -5 -8 4 -7 9 2
15 18 11 31 7 38 -12z m81 11 c0 -5 -4 -10 -10 -10 -5 0 -10 5 -10 10 0 6 5
10 10 10 6 0 10 -4 10 -10z m508 -15 c-3 -3 -9 2 -12 12 -6 14 -5 15 5 6 7 -7
10 -15 7 -18z m292 -10 c0 -5 -5 -3 -10 5 -5 8 -10 20 -10 25 0 6 5 3 10 -5 5
-8 10 -19 10 -25z m43 10 c4 -8 1 -17 -6 -21 -7 -4 -9 -4 -5 1 4 4 3 14 -3 22
-7 8 -8 13 -1 13 5 0 12 -7 15 -15z m-2476 -25 c19 -1 53 -22 53 -34 0 -3 -7
-6 -15 -6 -39 0 -3 -36 67 -68 27 -12 60 -32 74 -45 14 -12 31 -23 37 -23 7
-1 18 -2 25 -3 7 0 11 -5 8 -10 -9 -14 -48 -1 -76 25 -14 12 -38 28 -55 34
-26 10 -31 8 -46 -12 -16 -20 -16 -25 -3 -39 18 -20 18 -30 -1 -23 -9 4 -15 1
-15 -7 0 -32 -60 59 -91 139 -19 47 -36 90 -38 95 -2 5 11 2 27 -7 17 -9 39
-16 49 -16z m1667 15 c7 -18 46 -20 47 -2 0 9 2 9 5 0 3 -7 11 -11 17 -9 7 1
8 1 4 -2 -4 -2 -3 -10 4 -18 17 -21 4 -28 -15 -8 -15 15 -18 15 -42 -1 -15 -9
-23 -12 -20 -6 4 6 0 18 -8 27 -9 8 -16 20 -16 25 0 15 17 10 24 -6z m386 5
c0 -5 -4 -10 -9 -10 -6 0 -13 5 -16 10 -3 6 1 10 9 10 9 0 16 -4 16 -10z m173
-15 c4 -8 2 -17 -3 -20 -6 -4 -10 3 -10 14 0 25 6 27 13 6z m37 0 c0 -12 -19
-12 -23 0 -4 9 -1 12 9 8 7 -3 14 -7 14 -8z m307 -34 c16 -22 11 -23 -25 -5
-39 19 -76 15 -80 -8 -3 -14 6 -19 38 -24 28 -5 48 -16 66 -37 31 -37 94 -163
94 -188 0 -33 36 -60 130 -95 73 -28 112 -37 169 -38 64 -2 74 0 79 16 3 11
14 18 28 18 39 0 89 25 113 56 20 25 22 38 19 91 -3 45 -10 71 -27 93 -14 20
-20 38 -16 50 9 29 26 24 19 -5 -8 -32 19 -44 45 -21 18 16 19 15 27 -31 4
-26 8 -54 7 -60 0 -7 3 -10 8 -7 17 10 9 -27 -17 -79 -15 -29 -30 -54 -34 -57
-3 -3 -9 -13 -13 -22 -3 -9 -28 -28 -54 -42 -26 -13 -59 -36 -72 -50 -14 -14
-32 -26 -42 -26 -9 0 -20 -6 -22 -12 -3 -8 -20 4 -44 31 -29 33 -44 43 -57 38
-14 -6 -17 -14 -12 -38 3 -18 2 -28 -4 -24 -6 3 -10 14 -10 24 0 20 -43 47
-59 37 -6 -4 -11 -19 -11 -33 0 -20 4 -24 20 -20 15 4 20 0 20 -14 0 -11 8
-34 17 -52 10 -18 18 -48 19 -68 3 -57 39 -129 64 -129 25 0 35 22 21 48 -8
16 -7 21 4 26 22 8 18 26 -15 70 -36 47 -39 64 -7 32 42 -42 90 -207 65 -222
-6 -4 -7 -26 -4 -53 5 -33 4 -42 -3 -31 -6 8 -11 24 -11 35 0 32 -29 68 -44
55 -15 -12 -13 -146 3 -197 10 -36 7 -206 -6 -265 -5 -24 -24 -54 -51 -82 -38
-39 -46 -43 -70 -36 -15 5 -49 16 -77 25 -73 23 -243 47 -290 40 -29 -5 -64 2
-133 24 -111 36 -212 80 -212 93 0 5 -4 6 -10 3 -5 -3 -10 -1 -10 6 0 7 -3 10
-6 6 -3 -3 -15 4 -25 14 -12 12 -27 18 -39 14 -10 -3 -21 -1 -25 4 -4 7 1 8
11 4 12 -4 15 -3 10 6 -5 7 -17 11 -27 8 -11 -3 -17 -1 -14 3 7 12 -30 31 -40
22 -5 -4 -5 -2 -1 5 4 7 -7 21 -28 36 -65 43 -79 70 -71 134 7 61 -9 68 -21 8
-7 -40 -11 -42 -30 -17 -16 20 -18 52 -4 52 6 0 10 -4 10 -10 0 -5 5 -10 10
-10 6 0 10 8 10 18 0 9 14 30 30 46 17 16 35 46 40 66 5 20 21 47 35 60 14 13
25 29 25 37 0 20 11 16 47 -19 18 -18 33 -41 33 -52 1 -39 26 -116 43 -133 13
-13 20 -14 29 -5 12 12 -8 85 -52 184 -25 56 -42 71 -108 93 -57 18 -82 15
-82 -10 0 -9 -13 -21 -30 -26 -52 -19 -34 -30 33 -23 58 7 61 6 48 -10 -8 -9
-20 -15 -27 -12 -9 3 -15 -7 -20 -29 -3 -19 -8 -35 -10 -35 -13 0 -41 35 -37
46 7 19 -27 30 -38 13 -5 -8 -9 -36 -9 -64 -1 -35 -7 -57 -21 -75 l-21 -25
-24 28 c-33 39 -52 106 -33 117 41 26 49 37 49 66 0 17 6 52 14 78 13 42 13
48 -1 53 -27 10 -46 -28 -69 -132 -5 -27 -8 -22 -29 48 -12 43 -27 83 -34 90
-6 6 -11 18 -12 26 0 9 -17 37 -37 63 -127 162 -182 238 -187 261 -4 15 -11
27 -15 27 -4 0 -13 14 -20 30 -7 17 -22 35 -32 41 -11 6 -18 13 -15 15 3 3 26
-9 53 -25 55 -35 66 -38 57 -14 -5 12 7 6 32 -15 22 -17 43 -32 48 -32 5 0 40
-18 78 -40 100 -59 190 -79 287 -64 43 6 106 21 141 33 73 25 91 23 29 -4 -24
-10 -57 -32 -74 -47 -17 -16 -35 -28 -40 -27 -23 4 -52 -2 -70 -15 -17 -13
-18 -16 -3 -31 28 -29 75 -27 111 6 18 17 51 39 73 51 64 33 120 76 137 106
23 38 147 100 228 113 35 5 67 13 70 15 3 3 -4 12 -15 20 -19 15 -19 15 6 9
17 -4 33 0 50 14 22 18 26 19 49 4 14 -9 30 -24 37 -32z m919 23 c-6 -16 12
-60 21 -50 3 3 0 12 -7 21 -7 8 -8 15 -3 15 13 0 35 -49 27 -62 -11 -17 -54
33 -54 64 0 15 5 28 11 28 6 0 8 -7 5 -16z m-2140 -26 l29 -33 -35 30 c-19 17
-37 31 -39 33 -2 1 0 2 5 2 6 0 23 -15 40 -32z m427 12 c-3 -11 -7 -20 -9 -20
-2 0 -4 9 -4 20 0 11 4 20 9 20 5 0 7 -9 4 -20z m222 10 c3 -6 -1 -7 -9 -4
-18 7 -21 14 -7 14 6 0 13 -4 16 -10z m89 -6 c3 -8 2 -12 -4 -9 -6 3 -10 10
-10 16 0 14 7 11 14 -7z m66 12 c0 -3 -4 -8 -10 -11 -5 -3 -10 -1 -10 4 0 6 5
11 10 11 6 0 10 -2 10 -4z m30 -11 c0 -8 -4 -15 -10 -15 -5 0 -7 7 -4 15 4 8
8 15 10 15 2 0 4 -7 4 -15z m148 6 c10 -6 6 -11 -15 -19 -15 -6 -35 -10 -45
-10 -20 2 -12 28 9 28 8 0 11 -4 8 -10 -3 -5 -1 -10 4 -10 6 0 11 7 11 15 0
17 9 19 28 6z m-1298 -11 c0 -5 -4 -10 -9 -10 -6 0 -13 5 -16 10 -3 6 1 10 9
10 9 0 16 -4 16 -10z m240 -20 c0 -15 -5 -12 -26 11 -19 22 -19 22 4 10 12 -6
22 -16 22 -21z m-39 3 c13 -16 12 -17 -3 -4 -10 7 -18 15 -18 17 0 8 8 3 21
-13z m600 -10 c-12 -20 -14 -14 -5 12 4 9 9 14 11 11 3 -2 0 -13 -6 -23z
m-321 13 c0 -3 -4 -8 -10 -11 -5 -3 -10 -1 -10 4 0 6 5 11 10 11 6 0 10 -2 10
-4z m700 -16 c0 -5 -5 -10 -10 -10 -6 0 -28 -11 -50 -25 -22 -14 -40 -23 -40
-20 0 4 90 64 98 65 1 0 2 -4 2 -10z m-470 -10 c0 -5 -2 -10 -4 -10 -3 0 -8 5
-11 10 -3 6 -1 10 4 10 6 0 11 -4 11 -10z m265 1 c3 -5 2 -12 -3 -15 -5 -3 -9
1 -9 9 0 17 3 19 12 6z m-497 -18 c-10 -2 -28 -2 -40 0 -13 2 -5 4 17 4 22 1
32 -1 23 -4z m154 -104 c31 -11 44 -18 30 -19 -34 0 -93 34 -132 77 l-35 38
42 -39 c23 -21 65 -47 95 -57z m-411 64 c13 -16 12 -17 -3 -4 -10 7 -18 15
-18 17 0 8 8 3 21 -13z m844 -3 c-3 -5 -13 -10 -21 -10 -8 0 -27 -7 -42 -16
l-27 -16 25 20 c14 12 34 23 45 25 11 2 21 5 23 6 2 0 0 -3 -3 -9z m-1067 -35
c-9 -9 -88 -13 -88 -4 0 5 21 9 47 9 25 0 44 -2 41 -5z m217 -15 c10 -11 16
-20 13 -20 -3 0 -13 9 -23 20 -10 11 -16 20 -13 20 3 0 13 -9 23 -20z m60 -31
c22 -41 11 -36 -14 7 -12 19 -16 32 -11 29 6 -3 17 -19 25 -36z m670 31 c-3
-5 -14 -10 -23 -9 -14 0 -13 2 3 9 27 11 27 11 20 0z m715 -44 c0 -12 -5 -7
-19 24 -11 24 -11 24 3 6 9 -11 16 -24 16 -30z m280 34 c0 -5 -4 -10 -10 -10
-5 0 -10 5 -10 10 0 6 5 10 10 10 6 0 10 -4 10 -10z m117 -12 c-3 -8 -6 -5 -6
6 -1 11 2 17 5 13 3 -3 4 -12 1 -19z m-1167 2 c-8 -5 -24 -9 -35 -9 -16 1 -16
2 5 9 35 11 48 11 30 0z m-65 -10 c3 -5 1 -10 -4 -10 -6 0 -11 5 -11 10 0 6 2
10 4 10 3 0 8 -4 11 -10z m853 -55 c-3 -3 -9 2 -12 12 -6 14 -5 15 5 6 7 -7
10 -15 7 -18z m-2608 -35 c0 -18 -19 -11 -30 11 -11 19 -10 20 9 9 12 -6 21
-15 21 -20z m73 -7 c9 -10 35 -37 57 -60 22 -23 47 -46 57 -52 10 -5 15 -12
12 -15 -8 -9 -49 5 -49 17 0 6 -26 37 -57 69 -32 32 -53 58 -47 58 6 0 18 -8
27 -17z m2960 -30 c-6 -15 -42 -37 -49 -30 -2 2 -1 18 2 35 6 28 8 30 29 20
14 -6 21 -16 18 -25z m-2003 -8 c-11 -13 -11 -16 0 -13 7 2 14 -2 17 -9 3 -8
-5 -9 -29 -3 -73 17 -89 35 -40 46 15 3 32 7 37 9 19 5 28 -14 15 -30z m1630
10 c13 -14 21 -25 18 -25 -2 0 -15 11 -28 25 -13 14 -21 25 -18 25 2 0 15 -11
28 -25z m-1590 0 c0 -8 -4 -15 -10 -15 -5 0 -7 7 -4 15 4 8 8 15 10 15 2 0 4
-7 4 -15z m-1039 -33 c11 -29 5 -28 -16 4 -11 17 -12 25 -4 22 6 -2 16 -14 20
-26z m1106 6 c-3 -8 -6 -5 -6 6 -1 11 2 17 5 13 3 -3 4 -12 1 -19z m1833 -18
c0 -8 -35 -20 -63 -20 -15 0 -15 2 -5 14 14 14 68 20 68 6z m-2860 -60 c0 -5
-2 -10 -4 -10 -3 0 -8 5 -11 10 -3 6 -1 10 4 10 6 0 11 -4 11 -10z m979 -32
l23 -27 -28 8 c-16 4 -28 10 -26 14 1 4 2 15 2 24 0 9 1 14 3 12 1 -2 13 -16
26 -31z m17 -83 c-5 -19 -11 -25 -22 -21 -9 3 -27 6 -40 6 -17 0 -24 6 -24 19
0 16 8 20 43 23 23 2 44 2 46 1 2 -1 0 -14 -3 -28z m-811 9 l40 -14 -38 5
c-24 2 -35 0 -31 -7 4 -5 -5 -2 -20 7 -14 10 -26 19 -26 21 0 8 36 2 75 -12z
m90 -14 c-3 -5 -15 -10 -26 -10 -11 0 -17 5 -14 10 3 6 15 10 26 10 11 0 17
-4 14 -10z m160 -15 c6 -2 -16 -4 -47 -4 -32 -1 -58 3 -58 8 0 8 79 5 105 -4z
m65 -5 c-8 -5 -19 -10 -25 -10 -5 0 -3 5 5 10 8 5 20 10 25 10 6 0 3 -5 -5
-10z m57 4 c-3 -3 -12 -4 -19 -1 -8 3 -5 6 6 6 11 1 17 -2 13 -5z m473 -88 c0
-5 -8 -2 -18 7 -10 10 -19 24 -19 33 0 12 5 10 18 -7 10 -13 19 -28 19 -33z
m-959 -27 l34 -31 -65 6 c-36 4 -109 8 -163 9 -86 2 -100 0 -108 -15 -11 -21
-6 -22 22 -8 12 7 19 7 19 1 0 -5 10 -13 22 -17 l21 -6 -24 -14 -24 -13 33 -1
c17 0 32 -4 32 -10 0 -5 -4 -10 -8 -10 -5 0 -17 -6 -27 -14 -17 -12 -10 -13
52 -9 83 6 105 -9 48 -33 -34 -14 -39 -14 -56 2 -12 10 -28 15 -46 11 -182
-32 -309 -87 -460 -201 -56 -42 -104 -76 -107 -76 -8 0 2 41 15 56 7 8 9 29 6
49 -5 33 -1 38 90 125 79 75 154 130 183 135 3 0 16 7 30 15 48 27 156 50 270
56 63 4 122 10 130 15 27 15 46 10 81 -22z m1307 -15 c-3 -27 -4 -26 -9 8 -3
22 -1 34 4 29 5 -5 7 -21 5 -37z m-548 25 c12 -9 12 -10 -4 -5 -10 4 -25 1
-32 -5 -8 -6 -14 -7 -14 -2 0 24 25 30 50 12z m239 -77 c1 -9 -7 -7 -26 5 -15
10 -24 13 -20 7 5 -8 -6 -13 -33 -16 -22 -2 -40 -1 -40 3 0 20 39 52 63 52 18
0 27 5 28 16 1 17 27 -45 28 -67z m318 -69 c-3 -10 -5 -4 -5 12 0 17 2 24 5
18 2 -7 2 -21 0 -30z m-617 -3 c0 -5 -12 -10 -27 -9 l-28 1 25 8 c14 4 26 8
28 9 1 1 2 -3 2 -9z m-693 -16 c-3 -3 -12 -4 -19 -1 -8 3 -5 6 6 6 11 1 17 -2
13 -5z m1150 -26 c-3 -8 -6 -5 -6 6 -1 11 2 17 5 13 3 -3 4 -12 1 -19z m264
-55 c13 -17 13 -17 -6 -3 -11 8 -22 16 -24 17 -2 2 0 3 6 3 6 0 17 -8 24 -17z
m30 -40 c13 -16 12 -17 -3 -4 -10 7 -18 15 -18 17 0 8 8 3 21 -13z m-201 -33
c0 -5 -5 -10 -11 -10 -5 0 -7 5 -4 10 3 6 8 10 11 10 2 0 4 -4 4 -10z m40 -19
c0 -5 -7 -12 -15 -15 -13 -4 -14 -10 -5 -26 9 -16 8 -18 -5 -14 -18 7 -20 35
-3 52 14 14 28 16 28 3z m-806 -17 c4 -9 4 -19 2 -22 -10 -9 -36 8 -36 23 0
20 26 19 34 -1z m200 -2 c2 -4 -5 -9 -17 -9 -17 -2 -19 0 -7 7 18 12 18 12 24
2z m721 -10 c-3 -3 -11 0 -18 7 -9 10 -8 11 6 5 10 -3 15 -9 12 -12z m146 -47
c32 -37 35 -42 10 -20 -18 17 -42 44 -54 60 -24 35 -15 27 44 -40z m1190 -40
c0 -42 -2 -80 -5 -83 -3 -3 -6 26 -6 64 0 38 -3 80 -6 94 -5 19 -4 22 5 14 7
-7 12 -42 12 -89z m-1861 81 c0 -9 -39 -13 -51 -5 -10 6 -4 9 19 9 17 0 32 -2
32 -4z m361 -23 c8 -9 9 -14 2 -10 -6 4 -13 1 -16 -5 -3 -7 -4 -3 -4 10 1 26
1 26 18 5z m72 4 c18 -19 19 -37 2 -31 -20 8 -19 -2 3 -24 10 -10 24 -16 31
-14 10 3 10 0 -1 -17 -14 -23 -30 -29 -22 -7 4 10 -2 12 -21 9 -14 -3 -28 -9
-31 -14 -3 -5 -10 -9 -17 -9 -6 0 -2 7 9 16 18 14 18 15 -6 8 l-25 -6 28 22
c15 12 25 25 22 30 -3 5 0 12 6 15 5 4 8 13 5 21 -7 17 2 18 17 1z m54 -21
c-1 -6 9 -10 22 -8 20 3 21 2 10 -11 -10 -11 -18 -12 -31 -3 -23 14 -30 33
-13 33 8 0 13 -5 12 -11z m133 -12 c0 -2 -7 -4 -15 -4 -8 0 -15 4 -15 10 0 5
7 7 15 4 8 -4 15 -8 15 -10z m145 6 c3 -5 2 -10 -4 -10 -5 0 -13 5 -16 10 -3
6 -2 10 4 10 5 0 13 -4 16 -10z m-810 -50 c3 -5 1 -10 -4 -10 -6 0 -11 5 -11
10 0 6 2 10 4 10 3 0 8 -4 11 -10z m575 6 c0 -3 -4 -8 -10 -11 -5 -3 -10 -1
-10 4 0 6 5 11 10 11 6 0 10 -2 10 -4z m55 -26 c3 -6 -1 -7 -9 -4 -18 7 -21
14 -7 14 6 0 13 -4 16 -10z m106 -7 c13 -16 12 -17 -3 -4 -10 7 -18 15 -18 17
0 8 8 3 21 -13z m-266 -3 c-3 -5 -11 -10 -16 -10 -6 0 -7 5 -4 10 3 6 11 10
16 10 6 0 7 -4 4 -10z m89 2 c2 -4 1 -14 -4 -22 -12 -19 6 -51 25 -43 12 4 13
8 4 19 -10 12 -9 13 5 8 21 -8 21 5 -1 23 -17 13 -17 13 2 5 21 -10 38 -9 68
3 10 4 17 3 17 -5 0 -6 -5 -8 -12 -4 -8 5 -9 2 -5 -10 6 -14 3 -17 -9 -12 -8
3 -21 0 -28 -7 -15 -15 -28 -59 -15 -51 5 3 9 0 9 -6 0 -6 5 -8 10 -5 17 11
32 -5 19 -21 -7 -8 -7 -14 -1 -14 17 0 23 32 10 48 -7 9 -8 13 -3 10 9 -5 36
15 35 27 -1 23 2 26 15 21 8 -3 15 0 15 6 0 6 6 5 16 -3 10 -8 12 -15 5 -17
-17 -6 -13 -16 13 -45 15 -17 31 -24 40 -21 20 8 21 31 1 31 -8 0 -15 -5 -15
-11 0 -6 -5 -4 -10 4 -14 21 -12 30 5 30 8 0 15 -5 15 -10 0 -7 8 -7 22 1 17
9 23 9 26 0 2 -6 7 -9 12 -6 5 3 11 -4 15 -15 4 -11 10 -18 15 -15 4 2 20 -5
34 -16 26 -20 26 -22 10 -40 -10 -11 -15 -21 -12 -24 7 -8 39 6 33 14 -2 4 9
5 26 3 18 -3 29 0 29 7 0 7 -4 10 -9 6 -5 -3 -12 -1 -16 5 -12 19 20 10 38
-10 19 -22 22 -35 8 -25 -5 3 -12 1 -15 -4 -4 -5 2 -8 11 -6 10 2 21 4 26 4 4
1 6 4 5 9 -2 4 2 7 7 7 6 0 10 -8 9 -17 0 -14 2 -15 13 -6 11 8 12 7 7 -6 -4
-11 -1 -16 11 -16 11 0 15 5 12 14 -6 14 16 30 26 20 9 -10 -18 -54 -30 -49
-16 6 -16 -5 1 -27 7 -10 16 -15 19 -11 4 3 7 -1 7 -11 0 -9 7 -28 16 -42 16
-23 16 -26 -2 -40 -18 -14 -18 -15 4 -4 25 12 26 14 12 40 -7 14 -6 23 5 33 8
8 11 19 7 23 -4 5 -1 4 7 -2 10 -9 10 -17 2 -33 -11 -20 -10 -20 13 -9 14 6
23 14 21 19 -3 4 -2 10 3 13 4 2 8 -3 9 -13 1 -9 -8 -21 -20 -26 -26 -12 -29
-43 -6 -58 21 -13 88 19 102 50 6 13 25 31 43 39 23 11 31 20 27 31 -5 13 -1
15 18 11 49 -11 204 -70 207 -79 2 -5 9 -9 17 -9 7 0 25 -28 40 -62 23 -52 29
-80 32 -158 4 -114 -1 -140 -26 -140 -10 0 -26 -10 -37 -21 -41 -46 -141 -115
-184 -127 -25 -7 -96 -14 -159 -17 -97 -4 -123 -8 -165 -30 -81 -40 -136 -98
-136 -143 0 -24 -45 -73 -62 -67 -7 2 -25 -15 -41 -40 -30 -47 -30 -50 -11
-248 6 -59 4 -74 -15 -107 -16 -29 -22 -61 -26 -141 -6 -121 -29 -247 -56
-305 -11 -22 -19 -48 -19 -57 0 -9 -4 -18 -9 -21 -11 -7 -54 -131 -70 -201
-14 -59 -58 -169 -82 -205 -9 -14 -30 -52 -47 -85 -16 -33 -41 -76 -54 -95
-22 -33 -88 -188 -88 -208 0 -5 -11 -38 -23 -72 l-24 -62 -36 38 c-53 58 -189
269 -235 364 -6 14 -16 32 -22 40 -5 8 -24 44 -41 80 -77 157 -100 200 -149
280 -28 47 -63 97 -76 111 -16 17 -25 38 -26 63 -1 22 -8 40 -17 46 -14 8 -13
11 8 26 19 14 22 23 18 55 -4 29 0 42 14 55 24 22 24 48 0 71 -17 16 -17 22
-6 68 l13 50 -46 42 c-25 23 -50 39 -55 36 -5 -3 -4 3 2 14 7 14 7 23 -1 31
-16 16 -24 15 -42 -3 -22 -22 -49 -8 -42 21 4 16 2 24 -6 25 -18 2 -21 1 -41
-6 -13 -6 -16 -3 -11 9 8 20 -21 32 -41 16 -7 -6 -16 -21 -18 -33 -3 -16 -14
0 -44 63 -95 200 -100 222 -102 402 0 99 -4 122 -22 158 -20 38 -24 41 -53 34
-66 -14 -72 -25 -106 -173 -13 -56 -8 -159 12 -239 8 -33 8 -46 -1 -55 -21
-20 -76 57 -126 174 -25 59 -45 115 -45 126 0 11 -3 23 -7 27 -9 8 -30 118
-39 204 -6 48 -5 52 15 52 11 0 31 10 42 21 17 17 20 29 16 61 -5 41 -1 68 12
68 4 0 5 -16 3 -35 -2 -19 -2 -35 1 -35 16 0 36 13 32 20 -10 16 57 101 114
147 66 52 83 60 176 78 91 18 342 16 357 -2 6 -7 25 -13 42 -13 18 0 39 -6 48
-12 22 -18 38 -74 31 -108 -5 -25 -2 -31 21 -40 21 -8 25 -14 21 -33 -5 -20
-1 -26 26 -37 30 -13 33 -12 53 12 18 22 23 24 34 13 16 -19 15 -23 -5 -21
-11 0 -19 -7 -21 -20 -4 -25 40 -48 72 -38 20 6 20 6 4 -13 -24 -27 -23 -40 7
-59 21 -14 31 -15 50 -6 14 7 25 8 25 3 0 -19 57 -33 95 -22 29 8 44 7 64 -3
45 -24 211 13 251 54 18 19 62 39 99 45 42 7 43 6 36 -16 -7 -21 -6 -22 8 -11
14 12 25 11 69 -6 29 -10 71 -22 93 -25 38 -6 44 -3 105 49 36 30 68 62 71 72
4 10 26 22 52 29 41 11 47 17 56 50 6 21 11 43 11 50 0 6 11 25 25 41 21 25
23 31 11 42 -32 26 -96 -50 -96 -114 0 -30 -15 -36 -57 -23 -39 12 -63 4 -57
-20 3 -13 -10 -27 -44 -50 -50 -34 -76 -41 -87 -23 -3 6 -14 10 -24 10 -10 0
-28 8 -40 19 -18 15 -19 20 -6 25 18 7 20 36 3 37 -7 1 -17 2 -23 4 -5 1 -16
3 -23 3 -10 2 -10 7 2 24 19 27 21 54 4 64 -7 4 -8 3 -4 -4 4 -7 1 -12 -8 -12
-9 0 -16 -6 -17 -12 0 -10 -2 -10 -6 0 -4 10 -9 9 -19 -5 -13 -17 -14 -16 -9
8 4 17 1 30 -9 38 -13 11 -17 9 -27 -13 -13 -28 -25 -32 -49 -16 -12 7 -12 12
-2 22 17 17 15 48 -3 48 -8 0 -15 5 -15 11 0 5 -4 8 -10 4 -5 -3 -6 -13 -3
-23 3 -9 3 -14 -2 -10 -4 4 -14 3 -21 -3 -8 -7 -14 -6 -20 2 -4 7 -3 9 4 5 6
-3 13 -2 16 3 4 5 2 12 -3 16 -6 3 -7 13 -4 22 4 9 -1 21 -12 29 -10 8 -13 14
-7 14 7 0 12 5 12 11 0 7 -7 8 -17 4 -26 -10 -53 -15 -53 -9 0 3 13 10 30 15
16 6 27 15 24 21 -4 6 -9 6 -14 -2 -6 -9 -11 -7 -19 9 -8 14 -8 21 -1 21 21 0
9 15 -14 16 -18 1 -24 -3 -21 -16 4 -21 -19 -21 -38 0 -9 11 -8 11 7 0 18 -14
19 -13 14 7 -3 12 -3 22 1 21 18 -2 31 3 31 13 0 6 -7 9 -14 6 -11 -5 -14 1
-11 23 3 23 0 28 -12 23 -11 -4 -14 -2 -11 8 3 8 14 13 25 11 11 -1 26 5 34
15 9 11 10 14 2 9 -8 -4 -17 2 -25 19 -7 15 -17 24 -25 21 -7 -3 -13 -1 -13 5
0 6 -5 7 -12 3 -7 -4 -8 -3 -4 4 4 7 15 8 29 3 16 -6 30 -3 50 11 16 11 31 17
34 14 4 -3 0 -6 -8 -6 -9 -1 -8 -4 5 -11 15 -9 16 -13 5 -21 -11 -8 -11 -9 1
-5 8 2 14 10 13 16 -2 6 6 11 16 11 22 0 36 26 18 34 -9 3 -9 5 0 5 6 1 14 -3
17 -7z m280 -21 c-2 -3 -12 3 -22 13 -16 17 -16 18 5 5 12 -7 20 -15 17 -18z
m52 -16 c10 -8 14 -15 8 -15 -5 0 -19 7 -30 15 -10 8 -14 15 -8 15 5 0 19 -7
30 -15z m1384 -5 c-6 -11 -13 -20 -16 -20 -2 0 0 9 6 20 6 11 13 20 16 20 2 0
0 -9 -6 -20z m-2450 -21 c0 -5 -8 -9 -17 -8 -11 0 -13 3 -5 6 6 2 9 10 6 15
-4 7 -2 8 4 4 7 -4 12 -11 12 -17z m840 1 c0 -5 -7 -10 -15 -10 -8 0 -15 5
-15 10 0 6 7 10 15 10 8 0 15 -4 15 -10z m290 -6 l25 -15 -25 7 c-14 3 -29 10
-34 15 -16 14 6 10 34 -7z m941 -20 c-5 -16 -10 -21 -10 -12 -1 18 10 51 15
45 2 -1 -1 -16 -5 -33z m-1551 22 c0 -3 -4 -8 -10 -11 -5 -3 -10 -1 -10 4 0 6
5 11 10 11 6 0 10 -2 10 -4z m564 -18 c4 6 13 9 21 6 21 -8 10 -22 -16 -20
-12 0 -24 8 -26 16 -4 12 -3 12 5 1 6 -9 12 -10 16 -3z m-1066 -20 c2 -12 -3
-18 -15 -18 -15 0 -15 2 -3 10 8 5 11 12 7 16 -4 4 -13 2 -19 -4 -17 -17 -28
-15 -21 4 7 20 47 14 51 -8z m139 16 c-3 -3 -12 -4 -19 -1 -8 3 -5 6 6 6 11 1
17 -2 13 -5z m1043 -9 c14 -8 21 -14 15 -14 -5 0 -21 6 -35 14 -14 8 -20 14
-15 14 6 0 21 -6 35 -14z m-1100 -21 c0 -8 -4 -12 -10 -9 -5 3 -10 10 -10 16
0 5 5 9 10 9 6 0 10 -7 10 -16z m2273 -17 c-15 -19 -30 -32 -32 -30 -5 3 49
63 57 63 2 0 -9 -15 -25 -33z m-2188 13 c3 -5 1 -10 -4 -10 -6 0 -11 5 -11 10
0 6 2 10 4 10 3 0 8 -4 11 -10z m948 1 c16 -6 17 -9 5 -18 -11 -9 -16 -8 -26
8 -13 20 -9 22 21 10z m152 -12 c22 -10 29 -16 16 -13 -14 4 -27 1 -31 -6 -5
-9 -9 -9 -14 -1 -4 6 -1 11 6 11 7 1 2 7 -12 15 -36 21 -12 17 35 -6z m-1132
4 c-7 -2 -21 -2 -30 0 -10 3 -4 5 12 5 17 0 24 -2 18 -5z m1082 -13 c3 -5 1
-10 -4 -10 -6 0 -11 5 -11 10 0 6 2 10 4 10 3 0 8 -4 11 -10z m-1007 -23 c21
-16 13 -28 -15 -25 -17 2 -27 8 -25 17 2 10 -5 12 -32 7 -21 -4 -37 -2 -41 5
-9 13 93 10 113 -4z m348 -15 c-18 -16 -18 -16 -6 6 6 13 14 21 18 18 3 -4 -2
-14 -12 -24z m790 10 c-10 -2 -22 0 -28 6 -6 6 0 7 19 4 21 -5 23 -7 9 -10z
m-815 -29 c13 -16 12 -17 -3 -4 -10 7 -18 15 -18 17 0 8 8 3 21 -13z m905 3
c19 -14 18 -15 -3 -13 -12 0 -20 4 -17 8 2 4 -2 10 -8 12 -7 3 -8 6 -2 6 5 1
19 -5 30 -13z m-66 -5 c0 -12 -20 -25 -27 -18 -7 7 6 27 18 27 5 0 9 -4 9 -9z
m339 -7 c2 -2 -12 -4 -32 -4 -20 0 -37 -4 -37 -10 0 -6 -11 -5 -27 3 l-27 12
30 6 c27 5 83 1 93 -7z m581 12 c0 -2 -8 -10 -17 -17 -16 -13 -17 -12 -4 4 13
16 21 21 21 13z m-2019 -26 c5 0 9 -4 9 -9 0 -12 -38 -2 -47 12 -4 7 0 8 11 4
10 -4 22 -7 27 -7z m1046 -47 c-13 -28 -31 -30 -24 -3 3 11 1 20 -4 20 -5 0
-9 5 -9 11 0 5 5 7 10 4 6 -3 13 2 17 11 6 16 7 16 13 -2 4 -10 3 -29 -3 -41z
m106 14 c-23 -28 -30 -31 -42 -19 -7 7 -10 16 -7 20 4 3 11 0 15 -7 7 -10 13
-7 27 13 11 14 23 26 27 26 5 0 -4 -15 -20 -33z m-1098 13 c-3 -5 -10 -10 -16
-10 -5 0 -9 5 -9 10 0 6 7 10 16 10 8 0 12 -4 9 -10z m1895 -15 c-13 -14 -26
-23 -28 -20 -4 4 38 44 47 45 3 0 -6 -11 -19 -25z m-860 5 c0 -5 -5 -10 -11
-10 -5 0 -7 5 -4 10 3 6 8 10 11 10 2 0 4 -4 4 -10z m-1159 -54 c12 -8 28 -12
35 -9 8 3 14 0 14 -7 0 -10 -19 -11 -77 -6 -43 4 -79 9 -81 11 -2 2 2 10 9 19
17 18 70 14 100 -8z m329 4 c0 -5 -7 -7 -15 -4 -8 4 -15 8 -15 10 0 2 7 4 15
4 8 0 15 -4 15 -10z m1630 -4 c0 -2 -7 -7 -16 -10 -8 -3 -12 -2 -9 4 6 10 25
14 25 6z m-3062 -50 c-13 -20 -27 -36 -31 -36 -9 0 -1 14 28 52 29 37 31 26 3
-16z m1536 19 c-4 -8 -8 -15 -10 -15 -2 0 -4 7 -4 15 0 8 4 15 10 15 5 0 7 -7
4 -15z m-70 -34 c-6 -6 -24 19 -24 34 1 6 7 1 15 -9 8 -11 12 -22 9 -25z m-78
2 c-7 -8 -56 9 -51 18 3 4 17 3 30 -3 14 -6 23 -13 21 -15z m2979 -55 c-4 -24
-13 -50 -21 -59 -8 -8 -14 -21 -14 -27 0 -7 -10 -11 -22 -9 -17 1 -23 -3 -22
-15 1 -10 -2 -15 -8 -12 -5 3 -6 14 -3 24 3 9 6 34 7 54 1 22 6 36 14 36 7 0
17 6 21 13 7 12 41 36 51 37 2 0 1 -19 -3 -42z m222 6 c33 -15 52 -28 44 -31
-11 -5 -11 -7 0 -14 10 -6 8 -9 -8 -9 -13 0 -22 5 -20 13 1 6 -5 12 -13 12 -8
0 -15 -5 -15 -12 0 -21 -13 -24 -55 -12 -32 10 -40 17 -37 31 4 13 0 18 -14
18 -10 0 -19 4 -19 9 0 8 17 13 67 20 7 0 38 -11 70 -25z m-153 -5 c-3 -6 0
-15 7 -20 11 -6 9 -9 -8 -9 -12 0 -28 -3 -37 -6 -11 -4 -16 0 -16 14 0 19 14
28 48 31 7 0 10 -4 6 -10z m551 -45 c11 -2 56 -22 100 -44 87 -45 85 -45 -55
7 -97 36 -180 72 -180 78 0 2 26 -6 58 -17 31 -11 66 -22 77 -24z m-3368 11
c10 -24 9 -25 -18 -25 -20 0 -29 5 -29 16 0 8 -4 12 -10 9 -5 -3 -10 -2 -10 3
0 31 52 29 67 -3z m-372 5 c4 -6 -7 -10 -27 -9 -31 1 -32 1 -8 9 14 4 26 8 27
9 1 1 5 -3 8 -9z m3005 -20 c-6 -12 -9 -33 -6 -46 7 -27 1 -31 -17 -11 -19 20
-14 69 8 77 26 10 29 6 15 -20z m-106 -47 c-9 -3 -9 -10 0 -29 9 -20 16 -24
39 -20 27 5 37 -7 16 -20 -8 -4 -8 -9 0 -17 22 -22 12 -38 -21 -35 -29 3 -33
7 -33 33 -1 17 -7 44 -15 60 -7 17 -12 35 -11 40 2 6 3 21 3 35 1 23 2 22 17
-9 11 -24 13 -35 5 -38z m575 45 c24 -15 31 -24 20 -26 -25 -5 -69 16 -69 33
0 20 6 19 49 -7z m-3059 -27 c0 -14 -30 -41 -45 -41 -8 0 -11 7 -8 20 6 23 19
26 26 8 3 -9 7 -7 12 5 8 19 15 22 15 8z m2422 -23 c-6 -7 -12 -30 -14 -50 -2
-30 -6 -36 -17 -28 -12 7 -12 11 -2 23 9 11 9 17 1 22 -8 5 -4 15 11 31 23 24
41 26 21 2z m355 8 c-9 -24 5 -27 24 -5 19 22 54 19 98 -8 13 -9 51 -16 87
-17 63 -2 79 -8 79 -29 0 -5 6 -12 13 -15 7 -2 10 2 6 11 -4 12 1 13 35 4 23
-6 41 -15 41 -20 0 -5 -6 -7 -14 -4 -8 3 -47 -10 -88 -30 -60 -28 -81 -34
-117 -30 -25 3 -52 0 -62 -6 -12 -7 -35 -6 -85 6 -38 10 -77 17 -86 17 -10 0
-19 8 -19 18 -1 9 -3 27 -4 39 -2 21 -1 21 24 8 36 -18 113 -23 118 -7 3 6 -2
12 -10 12 -25 0 -61 35 -54 53 4 10 9 17 13 17 3 0 4 -6 1 -14z m373 4 c13 -9
13 -10 0 -10 -8 0 -22 5 -30 10 -13 9 -13 10 0 10 8 0 22 -5 30 -10z m-6056
-77 c-43 -79 -49 -87 -39 -54 8 27 64 121 71 121 3 0 -12 -30 -32 -67z m1216
38 c0 -4 -5 -22 -11 -40 -7 -20 -8 -36 -2 -44 5 -6 9 -75 7 -151 -1 -117 1
-146 17 -180 10 -23 19 -53 19 -68 0 -29 75 -193 102 -222 20 -21 24 -46 8
-46 -5 0 -7 -7 -4 -15 4 -8 14 -15 24 -15 10 0 23 -6 30 -14 6 -8 23 -16 38
-18 20 -2 28 -11 34 -37 5 -18 20 -50 32 -70 26 -40 76 -90 76 -75 0 34 -27
91 -61 130 l-40 46 23 23 c13 13 34 38 47 55 l24 31 -18 81 c-24 114 -25 225
0 262 l19 29 7 -28 c5 -15 7 -79 6 -144 -1 -130 14 -194 64 -268 16 -23 29
-44 29 -47 0 -4 23 -55 51 -114 73 -155 87 -190 103 -260 17 -75 40 -114 61
-106 24 10 -15 -53 -42 -67 -17 -9 -21 -18 -17 -35 14 -54 -48 -196 -77 -179
-22 14 -47 -16 -53 -65 l-7 -50 -27 14 c-15 8 -40 29 -56 46 -16 18 -53 42
-83 55 -45 20 -53 28 -53 51 0 22 -3 25 -23 20 -18 -4 -29 1 -45 23 -18 25
-19 31 -7 41 24 20 17 33 -7 16 -20 -14 -24 -14 -52 7 -17 13 -51 33 -76 46
-25 12 -62 36 -83 53 -21 16 -45 31 -52 32 -8 1 -27 13 -42 27 l-27 24 23 -32
c12 -18 27 -33 34 -33 8 0 8 -3 0 -11 -6 -6 -21 -8 -33 -4 -18 6 -20 9 -9 16
23 14 3 10 -43 -9 -66 -29 -218 -59 -218 -43 0 4 21 13 48 20 26 6 58 21 72
32 l25 20 -50 -6 c-27 -3 -62 -8 -77 -11 -21 -4 -28 -1 -33 17 -8 24 20 53 60
63 11 3 58 25 104 50 63 35 88 43 101 36 13 -7 21 -5 30 5 7 9 11 17 9 19 -9
7 -88 46 -161 80 -43 19 -78 37 -78 40 0 2 27 30 59 61 37 35 73 83 97 128 37
71 38 72 37 187 -1 84 3 122 14 143 10 21 12 32 4 40 -6 6 -11 22 -11 36 0 19
3 22 12 13 18 -18 46 -14 58 7 16 30 -11 82 -38 73 -16 -5 -15 4 7 74 27 85
33 125 20 140 -6 7 -17 10 -25 7 -8 -3 -14 0 -14 5 0 16 21 26 29 14 9 -16 63
-2 57 14 -7 18 10 64 24 64 5 0 10 -4 10 -9z m4291 -23 c0 -10 2 -10 6 0 10
24 22 11 17 -18 -5 -21 -3 -30 6 -30 21 0 2 -14 -24 -17 -20 -3 -22 1 -22 37
1 22 4 40 9 40 4 0 7 -6 8 -12z m-2461 -45 c3 -3 -6 -4 -20 -2 -14 1 -36 -1
-50 -4 -58 -15 -80 -16 -80 -2 0 11 8 13 29 9 23 -5 32 -2 42 14 12 19 15 20
43 5 17 -9 33 -18 36 -20z m3527 -43 c9 -12 10 -20 3 -20 -6 0 -13 6 -16 14
-3 7 -23 21 -44 31 -22 10 -37 21 -35 25 7 11 75 -26 92 -50z m-1372 40 c3 -5
2 -10 -4 -10 -5 0 -13 5 -16 10 -3 6 -2 10 4 10 5 0 13 -4 16 -10z m-2618 -32
c17 -19 16 -19 -37 -12 -65 8 -69 10 -45 27 23 17 59 11 82 -15z m-1664 -8
c-3 -11 -12 -20 -19 -20 -12 0 -12 4 -2 20 7 11 16 20 19 20 4 0 5 -9 2 -20z
m5511 -35 c93 -18 164 -57 161 -89 0 -12 3 -27 8 -34 7 -9 5 -11 -7 -6 -12 5
-15 2 -10 -10 4 -10 13 -15 20 -12 7 3 16 1 19 -4 13 -21 24 -8 13 15 -6 14
-16 25 -22 25 -6 0 -4 4 4 10 11 7 19 -3 38 -48 12 -31 30 -70 38 -85 9 -16
14 -30 12 -33 -3 -2 -17 18 -32 46 -26 47 -37 56 -61 50 -5 -2 -21 -4 -35 -6
-14 -2 -52 -8 -85 -14 -33 -6 -71 -9 -85 -6 -14 3 -19 3 -12 0 10 -5 9 -9 -5
-19 -17 -13 -17 -15 -1 -31 16 -16 25 -17 94 -6 93 15 112 26 87 54 -16 18
-16 18 0 12 9 -3 17 -10 17 -16 0 -5 4 -7 8 -4 4 2 9 -5 9 -16 1 -11 -1 -18
-4 -14 -3 3 -11 2 -17 -3 -6 -5 -37 -14 -68 -21 -45 -9 -56 -14 -51 -27 5 -14
8 -14 17 -2 6 8 22 16 36 16 18 2 21 0 10 -7 -8 -5 -19 -6 -25 -3 -5 4 -2 -3
8 -14 20 -24 13 -35 -19 -27 -25 6 -62 -20 -45 -31 6 -3 15 3 21 12 10 15 11
15 6 1 -8 -27 28 -50 81 -51 26 0 38 -2 26 -4 -17 -3 -20 -10 -17 -29 4 -20 1
-24 -13 -22 -10 2 -21 7 -25 13 -15 21 -17 -4 -3 -39 15 -35 18 -37 47 -31 21
5 28 4 24 -4 -4 -6 -20 -11 -35 -11 -23 0 -31 7 -41 33 -12 30 -85 146 -100
157 -3 3 -7 15 -7 28 -2 20 1 21 13 11 8 -6 17 -9 21 -5 9 9 2 13 -31 22 -26
6 -27 5 -17 -15 8 -14 8 -21 1 -21 -5 0 -10 5 -10 12 0 6 -10 22 -22 35 -20
21 -20 23 -4 17 14 -5 17 -4 12 5 -5 7 -15 10 -23 7 -8 -3 -42 8 -76 26 -55
28 -71 31 -147 31 -47 -1 -98 -6 -114 -12 -16 -7 -69 -21 -118 -31 -72 -16
-93 -18 -111 -8 -20 11 -99 29 -167 37 -26 4 73 31 110 31 19 -1 42 -6 51 -13
16 -12 112 -9 259 9 75 9 91 9 142 2 33 -5 36 -3 28 13 -33 61 -106 73 -257
42 -77 -16 -83 -16 -101 0 -18 17 -46 19 -67 5 -6 -3 -22 -4 -38 -1 -22 4 -27
11 -27 33 0 16 -3 36 -7 46 -5 14 -2 16 23 10 16 -4 41 -9 55 -11 14 -1 35 -7
45 -13 29 -15 66 -7 138 31 l65 34 158 -4 c87 -2 193 -10 237 -18z m-5687 -63
l30 -57 -20 -42 c-17 -35 -19 -47 -9 -68 17 -37 46 -31 82 18 18 23 30 35 27
27 -3 -8 -15 -46 -27 -85 -12 -38 -32 -102 -46 -142 -37 -111 -29 -165 36
-230 38 -39 53 -41 67 -11 l10 23 12 -23 c15 -29 35 -29 28 0 -4 13 0 29 9 40
18 19 11 40 -11 31 -19 -7 -20 -13 14 86 l29 84 7 -75 c9 -96 -1 -128 -73
-238 -30 -47 -57 -87 -59 -89 -2 -3 -15 6 -29 20 -28 26 -58 85 -55 109 1 9
-10 26 -23 39 l-25 24 22 17 c28 23 16 35 -22 22 -25 -9 -32 -7 -49 11 -38 42
-74 107 -68 122 3 8 1 15 -3 15 -15 0 -31 61 -38 137 -6 70 -5 73 16 73 26 0
88 30 127 63 16 13 38 27 48 31 42 15 4 17 -48 2 -59 -17 -77 -14 -108 21 -14
15 -14 23 -4 48 12 28 31 37 117 54 3 0 20 -25 36 -57z m4672 37 c19 -7 29
-15 24 -20 -13 -13 -73 1 -73 17 0 17 8 17 49 3z m-1 -89 c21 -6 23 -9 11 -14
-20 -9 -72 11 -64 24 4 6 11 8 16 4 6 -3 23 -10 37 -14z m-128 -36 c0 -2 -9 0
-20 6 -11 6 -20 13 -20 16 0 2 9 0 20 -6 11 -6 20 -13 20 -16z m190 -45 c41
-18 95 -38 120 -44 l45 -12 -59 -1 c-75 -1 -153 29 -186 70 -14 19 -19 29 -10
26 8 -4 49 -21 90 -39z m-3910 27 c0 -3 -4 -8 -10 -11 -5 -3 -10 -1 -10 4 0 6
5 11 10 11 6 0 10 -2 10 -4z m5070 -60 c-14 -14 -13 -29 3 -20 6 4 3 -2 -7
-14 -11 -12 -22 -20 -25 -17 -3 4 -1 9 5 13 5 4 9 16 8 28 -1 12 5 21 13 21 9
0 10 -4 3 -11z m-62 -56 c3 -7 0 -10 -7 -6 -7 5 -9 1 -4 -9 3 -10 0 -21 -8
-26 -13 -8 28 -14 79 -12 7 1 11 -2 8 -5 -3 -3 0 -12 7 -21 9 -12 7 -11 -13 2
-27 19 -69 22 -118 8 -24 -7 -32 -6 -32 3 0 9 9 12 27 8 23 -4 25 -2 20 18
-10 39 29 78 41 40z m168 -87 c-4 -4 -36 73 -35 85 0 4 9 -13 20 -37 11 -24
18 -46 15 -48z m-136 68 c0 -5 -7 -11 -14 -14 -10 -4 -13 -1 -9 9 6 15 23 19
23 5z m51 -114 c-4 -4 -18 -3 -32 2 -23 9 -22 9 8 8 18 -1 28 -6 24 -10z m112
-46 c4 -29 2 -40 -4 -30 -8 13 -14 88 -5 78 2 -2 6 -24 9 -48z m-6294 -6 c0
-5 -6 -1 -14 9 -8 11 -15 24 -15 30 0 5 7 1 15 -10 8 -10 14 -23 14 -29z
m6165 -1 c3 -8 2 -12 -4 -9 -6 3 -10 10 -10 16 0 14 7 11 14 -7z m44 -19 c-3
-3 -9 2 -12 12 -6 14 -5 15 5 6 7 -7 10 -15 7 -18z m-6138 -65 c27 -28 35 -40
27 -40 -2 0 -18 16 -37 35 -19 19 -31 35 -27 35 4 0 21 -14 37 -30z m6160 20
c11 -7 5 -8 -20 -4 -43 8 -51 14 -19 14 13 0 31 -5 39 -10z m100 -35 c0 -19
-2 -35 -4 -35 -2 0 -6 16 -8 35 -2 19 0 35 4 35 4 0 8 -16 8 -35z m-264 -6 c1
-5 2 -18 3 -30 0 -11 6 -17 11 -14 6 3 10 2 10 -4 0 -5 -5 -11 -11 -13 -6 -2
-14 -19 -19 -38 -6 -27 -8 -18 -7 42 0 43 3 75 6 72 3 -3 7 -10 7 -15z m48 2
c4 -5 -3 -7 -14 -4 -23 6 -26 13 -6 13 8 0 17 -4 20 -9z m-4 -21 c8 -5 11 -10
5 -10 -5 0 -17 5 -25 10 -8 5 -10 10 -5 10 6 0 17 -5 25 -10z m84 2 c2 -4 -11
-6 -30 -4 -19 2 -34 6 -34 8 0 8 59 4 64 -4z m61 -2 c-3 -5 -16 -10 -28 -9
-20 1 -20 2 3 9 14 4 26 8 28 9 2 1 0 -3 -3 -9z m-70 -40 c16 -17 16 -20 3
-15 -9 4 -19 13 -22 21 -7 19 -2 18 19 -6z m142 -12 c-3 -7 -5 -2 -5 12 0 14
2 19 5 13 2 -7 2 -19 0 -25z m-182 -22 c34 -9 55 -23 55 -39 0 -6 -6 -3 -13 6
-16 22 -92 37 -85 16 2 -7 19 -18 36 -23 18 -5 32 -13 32 -17 0 -11 -56 9 -69
25 -6 7 -7 22 -4 35 3 12 9 19 12 13 3 -5 19 -12 36 -16z m-5924 -3 c22 -13
29 -25 29 -48 0 -29 -4 -33 -51 -47 l-50 -17 -20 32 c-10 18 -19 34 -19 37 1
5 70 57 78 59 2 1 17 -7 33 -16z m6116 -15 c-3 -8 -6 -5 -6 6 -1 11 2 17 5 13
3 -3 4 -12 1 -19z m-97 -22 c0 -3 -4 -8 -10 -11 -5 -3 -10 -1 -10 4 0 6 5 11
10 11 6 0 10 -2 10 -4z m-190 -47 c-5 -19 -8 -55 -6 -81 1 -26 -1 -45 -6 -42
-11 7 -10 82 3 127 6 22 12 37 14 35 3 -2 0 -20 -5 -39z m47 26 c0 -8 -6 -15
-14 -15 -17 0 -17 17 0 23 6 3 12 6 13 6 0 1 1 -6 1 -14z m126 -8 c4 3 7 1 7
-6 0 -8 -7 -10 -21 -6 -14 5 -19 4 -15 -4 4 -7 1 -9 -8 -5 -12 5 -13 9 -3 19
7 8 16 10 23 4 6 -5 14 -6 17 -2z m-83 -13 c0 -2 -7 -4 -15 -4 -8 0 -15 4 -15
10 0 5 7 7 15 4 8 -4 15 -8 15 -10z m207 -81 c-2 -16 -4 -3 -4 27 0 30 2 43 4
28 2 -16 2 -40 0 -55z m-6287 57 c0 -5 -7 -10 -16 -10 -8 0 -12 5 -9 10 3 6
10 10 16 10 5 0 9 -4 9 -10z m227 -33 c7 -4 13 -14 13 -22 0 -7 12 -23 28 -34
l27 -20 -54 20 c-58 21 -111 47 -111 53 0 2 15 13 32 25 30 19 33 19 42 3 5
-9 15 -21 23 -25z m5822 34 c12 -7 12 -13 3 -24 -7 -7 -9 -17 -5 -20 3 -4 1
-7 -5 -7 -7 0 -12 9 -12 20 0 14 -5 18 -17 13 -15 -6 -16 -5 -3 10 18 19 20
20 39 8z m-4755 -36 c-4 -8 -10 -12 -15 -9 -14 8 -10 24 6 24 9 0 12 -6 9 -15z
m4856 -19 c0 -11 3 -32 6 -46 6 -24 6 -24 -8 -6 -8 10 -14 29 -12 42 1 16 -2
21 -12 17 -8 -3 -11 -10 -7 -16 4 -6 -2 -8 -15 -5 -28 8 -29 -8 -1 -17 11 -4
18 -9 16 -12 -3 -2 -15 1 -28 7 -19 11 -21 10 -16 -5 4 -10 3 -15 -4 -13 -12
4 -12 6 4 47 6 17 18 32 27 34 29 6 50 -5 50 -27z m-105 -16 c-3 -5 -13 -10
-21 -10 -8 0 -12 5 -9 10 3 6 13 10 21 10 8 0 12 -4 9 -10z m130 0 c3 -5 1
-10 -4 -10 -6 0 -11 5 -11 10 0 6 2 10 4 10 3 0 8 -4 11 -10z m75 -6 c0 -8 -4
-12 -10 -9 -5 3 -10 10 -10 16 0 5 5 9 10 9 6 0 10 -7 10 -16z m-6142 -45 c23
-22 42 -42 42 -45 0 -14 -155 7 -172 23 -19 17 -25 39 -9 28 6 -3 25 4 43 15
18 11 38 20 43 20 6 0 29 -19 53 -41z m5935 17 c4 -10 1 -13 -9 -9 -15 6 -19
23 -5 23 5 0 11 -7 14 -14z m254 -23 c-3 -10 -5 -4 -5 12 0 17 2 24 5 18 2 -7
2 -21 0 -30z m-278 8 c9 -16 8 -18 -8 -14 -12 3 -17 11 -14 19 7 18 10 18 22
-5z m91 -4 c0 7 7 10 15 7 8 -4 15 -10 15 -15 0 -4 -7 -6 -15 -3 -17 7 -21
-11 -5 -21 20 -12 10 -32 -14 -30 -18 2 -26 -3 -30 -18 -5 -19 -8 -20 -16 -7
-6 9 -10 10 -10 3 0 -7 8 -16 17 -22 17 -9 16 -11 -1 -30 -11 -12 -16 -27 -12
-37 4 -10 1 -21 -6 -26 -9 -6 -5 -7 10 -3 12 3 22 2 22 -3 0 -5 -6 -9 -12 -9
-7 0 -23 -3 -35 -7 -17 -6 -23 -3 -23 8 0 20 -16 21 -23 2 -5 -13 34 -32 56
-28 6 2 11 -21 8 -40 0 -5 6 -8 14 -8 12 0 13 4 5 19 -13 25 -13 31 1 31 5 0
8 -4 5 -9 -3 -5 0 -14 8 -20 11 -9 13 -6 10 15 -2 20 1 24 13 20 14 -6 14 -4
2 11 -8 10 -23 25 -34 35 -15 13 -17 19 -8 28 13 14 37 4 28 -11 -5 -8 19 -13
29 -6 1 1 15 -13 30 -30 24 -29 30 -31 49 -22 18 9 20 9 10 -2 -20 -20 -16
-41 6 -34 11 3 22 1 26 -4 4 -7 -1 -8 -11 -4 -12 4 -15 3 -10 -6 5 -8 0 -10
-18 -7 -15 3 -24 1 -21 -5 4 -5 17 -9 29 -9 13 0 29 -7 36 -15 7 -8 16 -12 21
-9 17 10 9 -9 -8 -22 -26 -20 -35 -17 -22 8 10 18 9 20 -6 15 -9 -4 -24 -7
-33 -8 -14 0 -13 -2 3 -9 11 -5 14 -9 6 -9 -10 -1 -11 -4 -2 -15 9 -11 9 -15
0 -18 -15 -5 -3 -28 14 -28 8 0 7 3 -2 9 -11 7 -10 11 7 20 15 8 23 8 28 -1 4
-7 3 -8 -4 -4 -7 4 -12 2 -12 -3 0 -6 7 -11 15 -11 8 0 15 8 15 18 0 14 2 14
9 3 6 -10 11 5 16 45 11 100 14 104 8 9 -7 -109 -6 -135 7 -150 6 -7 6 -24 1
-46 -5 -19 -12 -59 -15 -89 -9 -88 -71 -316 -92 -340 -11 -11 -16 -12 -26 -1
-11 10 -10 11 4 6 24 -9 53 91 32 112 -12 12 -13 10 -8 -15 4 -19 1 -32 -7
-37 -9 -6 -11 -3 -6 8 6 17 -24 42 -37 30 -12 -12 -6 -22 9 -17 8 4 15 1 15
-5 0 -6 -5 -11 -11 -11 -6 0 -18 -7 -26 -16 -15 -14 -14 -15 2 -12 10 2 20 -3
22 -9 3 -8 -4 -13 -15 -13 -32 0 -53 -11 -45 -24 3 -6 3 -8 -1 -4 -4 3 -8 10
-8 15 0 4 -5 14 -11 21 -8 10 -7 12 3 10 7 -2 14 2 17 9 3 7 -4 10 -19 7 l-23
-5 24 14 c24 14 23 14 -18 13 -34 0 -39 -3 -26 -12 16 -12 21 -39 5 -29 -6 4
-7 -1 -3 -11 5 -14 3 -16 -13 -9 -10 4 -27 8 -36 9 -9 0 -16 4 -15 9 1 5 -4
12 -12 15 -10 3 -12 -2 -7 -22 4 -16 2 -26 -4 -26 -6 0 -8 5 -5 11 4 6 0 9
-11 7 -15 -2 -19 3 -17 26 3 35 11 45 23 26 13 -21 22 -6 25 41 2 34 -3 47
-28 73 -16 17 -24 23 -17 14 6 -9 9 -22 5 -27 -3 -7 0 -8 9 -5 9 3 16 1 16 -5
0 -6 -6 -11 -12 -11 -9 0 -8 -4 2 -10 8 -5 11 -10 5 -10 -5 0 -4 -4 4 -9 8 -5
11 -16 8 -26 -4 -9 -11 -13 -17 -10 -6 3 -22 -3 -36 -14 -15 -12 -22 -21 -15
-21 17 0 13 -27 -5 -34 -12 -4 -15 -2 -10 9 3 8 1 15 -4 15 -6 0 -10 -7 -10
-15 0 -22 -16 -18 -17 4 -1 11 6 22 15 25 12 3 11 4 -3 3 -11 -1 -20 -9 -20
-17 0 -8 -4 -18 -9 -22 -6 -4 2 -10 17 -13 15 -4 27 -13 27 -20 0 -17 28 -27
33 -12 2 7 -3 17 -12 24 -14 11 -13 12 7 13 12 0 22 -4 22 -10 0 -5 7 -10 15
-10 18 0 20 -19 3 -25 -38 -13 -67 -12 -72 2 -6 14 -9 13 -27 -3 -18 -16 -19
-16 -13 -1 5 14 2 16 -12 10 -16 -6 -17 -5 -6 9 9 11 10 18 2 23 -7 4 -7 13 1
28 9 20 9 20 -4 5 -19 -24 -28 -22 -18 4 4 12 15 22 23 24 9 1 24 7 35 13 15
10 14 10 -9 5 -33 -7 -34 -2 -12 57 20 55 48 171 65 267 7 40 15 68 19 62 4
-7 11 -11 16 -11 5 1 10 -10 11 -24 1 -19 -3 -25 -18 -25 -10 0 -19 -5 -19
-10 0 -6 3 -9 8 -9 24 4 34 -2 24 -14 -8 -10 -6 -13 9 -14 16 -2 17 2 9 17
-12 22 -13 33 -2 26 4 -2 8 7 7 21 0 14 6 28 14 31 8 3 11 0 7 -6 -3 -6 1 -9
11 -8 9 2 19 9 21 17 3 11 1 11 -8 -1 -9 -12 -11 -10 -7 13 4 26 3 26 -13 12
-27 -24 -50 -19 -51 13 0 24 -1 25 -9 7 l-9 -20 0 20 c-1 11 4 49 10 85 16
100 30 208 38 290 l8 75 1 -73 c1 -40 -2 -81 -8 -91 -5 -10 -11 -59 -12 -110
-2 -50 -6 -91 -10 -91 -5 0 -8 -9 -8 -20 0 -11 6 -20 14 -20 8 0 14 11 14 26
0 15 6 31 13 36 11 8 10 9 -3 4 -14 -4 -18 1 -18 24 0 22 4 28 15 24 8 -4 15
-10 15 -15 0 -5 8 -9 18 -8 10 0 12 3 5 6 -21 8 -15 26 6 20 12 -3 18 0 15 7
-6 15 -44 39 -52 32 -3 -3 0 -6 6 -6 7 0 12 -4 12 -10 0 -5 -6 -7 -14 -4 -15
6 -16 60 -2 82 4 8 16 12 26 9 11 -3 21 1 24 9 3 8 2 13 -2 13 -20 -3 -33 2
-27 11 3 6 1 10 -4 10 -6 0 -11 14 -11 31 0 17 4 28 10 24 6 -3 10 -1 10 4 0
6 -4 11 -10 11 -5 0 -10 7 -10 15 0 8 7 15 15 15 8 0 15 -5 15 -11 0 -5 5 -7
10 -4 6 4 19 1 28 -7 15 -12 16 -11 4 4 -8 9 -10 23 -6 29 5 9 10 7 20 -5 7
-10 15 -13 18 -7 4 5 2 12 -4 16 -6 4 -7 11 -4 17 4 6 10 5 15 -3 6 -10 9 -10
9 -2z m80 -6 c0 -5 8 -18 18 -27 16 -17 16 -18 -1 -11 -27 10 -41 -3 -20 -19
20 -15 7 -19 -16 -5 -10 7 -11 13 -2 30 7 12 9 26 6 31 -3 6 -1 10 4 10 6 0
11 -4 11 -9z m-5816 -14 c17 -12 13 -14 -34 -16 -77 -2 -110 12 -45 20 28 3
53 7 56 7 3 1 13 -4 23 -11z m5876 -32 c0 -5 -5 -3 -10 5 -5 8 -10 20 -10 25
0 6 5 3 10 -5 5 -8 10 -19 10 -25z m-5770 -20 c24 -13 24 -16 1 -19 -5 0 -13
-4 -17 -8 -4 -5 -14 -8 -22 -8 -12 0 -12 3 -1 16 12 15 10 16 -21 10 -33 -7
-34 -6 -16 9 24 19 43 19 76 0z m5675 -27 c-6 -17 -4 -20 10 -14 10 3 23 1 31
-4 10 -9 10 -15 -4 -29 -9 -10 -20 -16 -24 -14 -5 2 -8 -1 -8 -6 0 -17 18 -13
39 10 11 12 17 27 14 35 -3 8 0 14 5 14 6 0 13 -8 16 -17 3 -10 4 -5 2 10 -3
25 -2 26 14 12 9 -8 20 -12 23 -8 4 3 7 -1 7 -10 0 -11 -5 -14 -17 -10 -11 4
-14 3 -9 -5 4 -7 1 -12 -7 -12 -25 0 -28 -28 -4 -36 12 -5 25 -7 28 -6 3 0 4
-10 1 -24 l-4 -24 -36 22 c-20 12 -32 16 -28 9 6 -9 3 -12 -10 -9 -11 2 -18
10 -16 16 1 7 -2 12 -7 12 -5 0 -17 7 -25 16 -9 8 -16 11 -16 5 0 -6 -9 -2
-20 9 l-21 21 21 29 c26 36 55 41 45 8z m155 2 c0 -11 -2 -20 -4 -20 -2 0 -6
9 -9 20 -3 11 -1 20 4 20 5 0 9 -9 9 -20z m-5890 -14 c0 -2 -7 -7 -16 -10 -8
-3 -12 -2 -9 4 6 10 25 14 25 6z m985 -86 c3 -5 1 -18 -4 -27 -6 -10 -11 -13
-11 -6 0 6 -3 18 -6 27 -7 17 11 22 21 6z m-1714 -27 c13 -16 12 -17 -3 -4
-10 7 -18 15 -18 17 0 8 8 3 21 -13z m6597 -42 c3 -10 0 -10 -17 -2 -25 14
-27 20 -4 17 9 -2 19 -8 21 -15z m-5653 -107 c54 -12 125 -36 125 -43 -1 -3
-17 -16 -36 -28 -29 -19 -34 -20 -32 -6 6 35 -23 22 -57 -26 -29 -40 -45 -53
-78 -61 -23 -6 -49 -13 -58 -16 -16 -5 -129 64 -129 79 0 4 4 6 8 3 4 -2 19 5
32 16 l25 20 -45 -6 -45 -5 24 20 c13 10 37 19 55 20 17 0 58 11 91 24 33 13
67 22 75 20 8 -2 29 -7 45 -11z m731 -130 c-4 -13 -11 -24 -17 -24 -6 0 -8 7
-5 16 3 9 6 28 6 42 1 24 2 25 11 9 6 -10 8 -29 5 -43z m-518 1 c-3 -3 -13 7
-23 22 l-17 28 23 -22 c12 -12 20 -25 17 -28z m-1148 0 c14 -19 14 -19 -2 -6
-10 7 -18 18 -18 24 0 6 1 8 3 6 1 -2 9 -13 17 -24z m615 -5 c3 -5 1 -10 -4
-10 -6 0 -11 5 -11 10 0 6 2 10 4 10 3 0 8 -4 11 -10z m447 -43 c-7 -8 -10
-16 -7 -19 3 -2 -11 -20 -30 -38 -19 -18 -38 -31 -41 -27 -7 6 78 107 85 101
2 -2 -1 -10 -7 -17z m-407 -7 c3 -5 -1 -10 -9 -10 -9 0 -16 5 -16 10 0 6 4 10
9 10 6 0 13 -4 16 -10z m892 -142 c-3 -8 -6 -5 -6 6 -1 11 2 17 5 13 3 -3 4
-12 1 -19z m4554 -256 c-7 -13 -6 -23 2 -31 9 -10 8 -11 -5 -6 -26 10 -22 55
4 55 5 0 4 -8 -1 -18z m219 -12 c-19 -12 -30 -12 -30 -1 0 10 31 20 40 14 2
-2 -2 -8 -10 -13z m60 11 c0 -5 -9 -7 -20 -4 -11 3 -20 7 -20 9 0 2 9 4 20 4
11 0 20 -4 20 -9z m120 -23 c0 -4 -4 -8 -9 -8 -6 0 -12 4 -15 8 -3 5 1 9 9 9
8 0 15 -4 15 -9z m-160 -12 c0 -2 -7 -7 -16 -10 -8 -3 -12 -2 -9 4 6 10 25 14
25 6z m-195 -36 c-10 -11 -25 -20 -34 -19 -14 0 -14 1 -1 6 8 4 21 15 29 25 7
11 16 17 19 14 3 -3 -3 -15 -13 -26z m129 14 c4 -10 1 -14 -6 -12 -15 5 -23
28 -10 28 5 0 13 -7 16 -16z m166 8 c0 -5 -7 -9 -15 -9 -8 0 -15 4 -15 9 0 4
7 8 15 8 8 0 15 -4 15 -8z m-348 -24 c-7 -7 -12 -8 -12 -2 0 14 12 26 19 19 2
-3 -1 -11 -7 -17z m268 3 c0 -5 -12 -6 -27 -3 -24 5 -25 6 -8 12 21 8 35 4 35
-9z m110 12 c0 -5 -4 -15 -10 -23 -6 -9 -5 -19 3 -29 10 -11 9 -13 -3 -9 -8 2
-15 10 -14 16 1 7 2 21 3 32 1 18 21 30 21 13z m17 -15 c-3 -8 -6 -5 -6 6 -1
11 2 17 5 13 3 -3 4 -12 1 -19z m-421 -12 c0 -15 -5 -21 -10 -16 -5 5 -6 16
-3 24 9 23 15 19 13 -8z m137 8 c9 -9 -4 -35 -14 -28 -5 3 -9 12 -9 20 0 14
12 19 23 8z m-59 -31 c2 7 5 8 5 2 0 -5 -4 -17 -10 -25 -8 -11 -12 -12 -16 -2
-2 6 -14 12 -24 12 -11 0 -18 4 -14 10 3 6 15 6 30 0 16 -6 25 -5 29 3z m-62
-38 c0 -5 -5 -11 -10 -13 -5 -1 -9 4 -9 13 0 9 4 14 9 13 5 -2 10 -8 10 -13z
m364 -7 c5 -8 2 -9 -9 -5 -10 3 -17 2 -17 -4 0 -6 -5 -7 -11 -3 -8 4 -7 9 2
15 19 12 27 11 35 -3z m-326 -8 c5 8 7 3 7 -14 -2 -24 -3 -25 -14 -9 -7 9 -13
22 -12 27 0 6 3 5 6 -3 4 -10 7 -11 13 -1z m115 1 c-3 -5 -1 -12 5 -16 5 -3
10 -11 10 -17 0 -7 -6 -6 -15 2 -17 14 -20 40 -4 40 5 0 8 -4 4 -9z m-55 -17
c0 -8 -4 -12 -10 -9 -5 3 -10 10 -10 16 0 5 5 9 10 9 6 0 10 -7 10 -16z m293
-3 c-5 -3 -10 -17 -10 -30 -2 -24 -10 -38 -18 -30 -9 10 16 79 27 73 6 -4 6
-9 1 -13z m-173 -41 c0 -13 -6 -20 -17 -19 -11 0 -13 3 -5 6 6 2 12 11 12 19
0 8 2 14 5 14 3 0 5 -9 5 -20z m60 11 c0 -6 -4 -13 -10 -16 -5 -3 -10 1 -10 9
0 9 5 16 10 16 6 0 10 -4 10 -9z m-384 -29 c-18 -16 -18 -16 -6 6 6 13 14 21
18 18 3 -4 -2 -14 -12 -24z m124 -2 c0 -5 -7 -10 -16 -10 -8 0 -12 5 -9 10 3
6 10 10 16 10 5 0 9 -4 9 -10z m80 -4 c0 -3 -4 -8 -10 -11 -5 -3 -10 -1 -10 4
0 6 5 11 10 11 6 0 10 -2 10 -4z m30 -11 c11 -13 10 -14 -4 -9 -9 3 -16 10
-16 15 0 13 6 11 20 -6z m205 4 c11 -17 -1 -21 -15 -4 -8 9 -8 15 -2 15 6 0
14 -5 17 -11z m35 -9 c0 -5 -4 -10 -10 -10 -5 0 -10 5 -10 10 0 6 5 10 10 10
6 0 10 -4 10 -10z m-497 -15 c-3 -9 -8 -14 -10 -11 -3 3 -2 9 2 15 9 16 15 13
8 -4z m111 1 c-7 -19 -46 -28 -59 -14 -7 8 -6 9 3 4 6 -4 19 0 28 8 19 20 35
21 28 2z m236 4 c0 -5 -2 -10 -4 -10 -3 0 -8 5 -11 10 -3 6 -1 10 4 10 6 0 11
-4 11 -10z m-30 -20 c0 -11 -7 -20 -15 -20 -13 0 -14 4 -5 20 6 11 13 20 15
20 3 0 5 -9 5 -20z m-326 -40 c-22 -9 -29 -6 -20 9 4 6 14 7 23 4 15 -6 14 -7
-3 -13z m46 11 c0 -5 -6 -14 -14 -20 -12 -10 -13 -8 -9 8 5 21 23 30 23 12z
m360 -1 c0 -5 -5 -10 -11 -10 -5 0 -7 5 -4 10 3 6 8 10 11 10 2 0 4 -4 4 -10z
m-275 -10 c3 -5 -1 -10 -10 -10 -9 0 -13 5 -10 10 3 6 8 10 10 10 2 0 7 -4 10
-10z m75 -6 c0 -2 -7 -4 -15 -4 -8 0 -15 4 -15 10 0 5 7 7 15 4 8 -4 15 -8 15
-10z m40 8 c0 -5 -7 -9 -15 -9 -8 0 -15 4 -15 9 0 4 7 8 15 8 8 0 15 -4 15 -8z
m225 -22 c3 -5 1 -10 -4 -10 -6 0 -11 5 -11 10 0 6 2 10 4 10 3 0 8 -4 11 -10z
m-175 -16 c0 -2 -7 -4 -15 -4 -8 0 -15 4 -15 10 0 5 7 7 15 4 8 -4 15 -8 15
-10z m123 1 c-3 -9 -8 -14 -10 -11 -3 3 -2 9 2 15 9 16 15 13 8 -4z m-472 -18
c-10 -9 -11 -8 -5 6 3 10 9 15 12 12 3 -3 0 -11 -7 -18z m399 7 c0 -8 -5 -12
-10 -9 -6 4 -8 11 -5 16 9 14 15 11 15 -7z m-265 -4 c3 -5 2 -10 -4 -10 -5 0
-13 5 -16 10 -3 6 -2 10 4 10 5 0 13 -4 16 -10z m165 -11 c0 -14 -17 -10 -23
5 -4 10 -1 13 9 9 7 -3 14 -9 14 -14z m60 -4 c-7 -9 -15 -13 -17 -11 -7 7 7
26 19 26 6 0 6 -6 -2 -15z m-185 -5 c-3 -5 -11 -10 -16 -10 -6 0 -7 5 -4 10 3
6 11 10 16 10 6 0 7 -4 4 -10z m89 -16 c9 -24 2 -26 -12 -4 -7 11 -8 20 -3 20
5 0 12 -7 15 -16z m-34 -4 c0 -5 -2 -10 -4 -10 -3 0 -8 5 -11 10 -3 6 -1 10 4
10 6 0 11 -4 11 -10z m108 -27 c-9 -10 -13 -25 -10 -33 3 -11 2 -12 -8 -4 -9
9 -9 16 2 33 7 11 17 21 22 21 5 0 2 -8 -6 -17z m132 12 c0 -2 -10 -10 -22
-16 -21 -11 -22 -11 -9 4 13 16 31 23 31 12z m-473 -21 c-3 -3 -12 -4 -19 -1
-8 3 -5 6 6 6 11 1 17 -2 13 -5z m268 -4 c3 -5 1 -10 -4 -10 -6 0 -11 5 -11
10 0 6 2 10 4 10 3 0 8 -4 11 -10z m120 -38 c-3 -3 -11 0 -18 7 -9 10 -8 11 6
5 10 -3 15 -9 12 -12z m55 1 c0 -10 -4 -14 -8 -8 -4 6 -11 13 -16 18 -5 4 -2
7 7 7 10 0 17 -8 17 -17z m-385 -3 c3 -5 1 -10 -4 -10 -6 0 -11 5 -11 10 0 6
2 10 4 10 3 0 8 -4 11 -10z m275 -6 c0 -2 -7 -4 -15 -4 -8 0 -15 4 -15 10 0 5
7 7 15 4 8 -4 15 -8 15 -10z m120 -47 c-12 -17 -20 -27 -17 -22 21 54 32 74
35 65 2 -6 -6 -25 -18 -43z m-215 13 c3 -5 -1 -10 -9 -10 -9 0 -16 5 -16 10 0
6 4 10 9 10 6 0 13 -4 16 -10z m-225 -10 c0 -5 -5 -10 -11 -10 -5 0 -7 5 -4
10 3 6 8 10 11 10 2 0 4 -4 4 -10z m183 -4 c4 -10 1 -13 -9 -9 -15 6 -19 23
-5 23 5 0 11 -7 14 -14z m178 -3 c13 -16 12 -17 -3 -4 -10 7 -18 15 -18 17 0
8 8 3 21 -13z m-244 -29 c-3 -3 -12 -4 -19 -1 -8 3 -5 6 6 6 11 1 17 -2 13 -5z
m148 -4 c3 -5 2 -10 -4 -10 -5 0 -13 5 -16 10 -3 6 -2 10 4 10 5 0 13 -4 16
-10z m84 7 c-2 -1 -15 -11 -29 -22 l-25 -20 19 23 c11 12 24 22 29 22 6 0 8
-1 6 -3z m-120 -33 c13 -12 -8 -10 -29 2 l-25 15 25 -7 c14 -3 27 -8 29 -10z
m-246 -9 c-3 -9 -8 -14 -10 -11 -3 3 -2 9 2 15 9 16 15 13 8 -4z m398 -22
c-12 -20 -14 -14 -5 12 4 9 9 14 11 11 3 -2 0 -13 -6 -23z m-421 -13 c0 -5 -2
-10 -4 -10 -3 0 -8 5 -11 10 -3 6 -1 10 4 10 6 0 11 -4 11 -10z m275 0 c3 -5
1 -10 -4 -10 -6 0 -11 5 -11 10 0 6 2 10 4 10 3 0 8 -4 11 -10z m75 6 c0 -3
-4 -8 -10 -11 -5 -3 -10 -1 -10 4 0 6 5 11 10 11 6 0 10 -2 10 -4z m-200 -38
c0 -11 -28 -10 -35 1 -3 6 4 9 15 8 11 -1 20 -5 20 -9z m-292 -18 c-7 -10 -14
-17 -17 -15 -4 4 18 35 25 35 2 0 -1 -9 -8 -20z m488 -8 c-18 -16 -18 -16 -6
6 6 13 14 21 18 18 3 -4 -2 -14 -12 -24z m-446 14 c0 -3 -4 -8 -10 -11 -5 -3
-10 -1 -10 4 0 6 5 11 10 11 6 0 10 -2 10 -4z m96 -9 c8 3 14 0 14 -6 0 -9
-27 -10 -58 -2 -2 1 0 6 4 12 4 7 10 7 16 1 6 -6 17 -8 24 -5z m264 -45 c0
-15 -2 -15 -10 -2 -13 20 -13 33 0 25 6 -3 10 -14 10 -23z m90 9 c-5 -11 -15
-23 -22 -27 -7 -5 -8 -2 -3 7 21 37 44 55 25 20z m-232 -26 c-3 -3 -9 2 -12
12 -6 14 -5 15 5 6 7 -7 10 -15 7 -18z m-48 5 c0 -5 -4 -10 -10 -10 -5 0 -10
5 -10 10 0 6 5 10 10 10 6 0 10 -4 10 -10z m174 -16 c18 -26 18 -26 -2 -15
-11 6 -22 17 -26 26 -9 23 7 17 28 -11z m45 12 c9 -10 8 -15 -2 -19 -8 -3 -13
3 -13 14 0 23 0 23 15 5z m-269 -6 c0 -5 -5 -10 -11 -10 -5 0 -7 5 -4 10 3 6
8 10 11 10 2 0 4 -4 4 -10z m-168 -22 c-7 -7 -12 -8 -12 -2 0 14 12 26 19 19
2 -3 -1 -11 -7 -17z m43 -8 c-3 -5 -11 -10 -16 -10 -6 0 -7 5 -4 10 3 6 11 10
16 10 6 0 7 -4 4 -10z m404 -7 c-33 -43 -79 -92 -79 -85 0 5 9 17 20 27 12 10
19 24 16 31 -3 8 0 11 9 8 7 -3 16 3 20 15 3 12 11 21 17 21 6 0 5 -7 -3 -17z
m-190 -16 c0 -9 -2 -9 -5 0 -3 7 -13 9 -22 6 -14 -4 -14 -3 -2 5 16 12 30 7
29 -11z m-332 -19 c-3 -8 -6 -5 -6 6 -1 11 2 17 5 13 3 -3 4 -12 1 -19z m148
3 c8 -21 2 -22 -25 -1 -25 19 -25 19 -3 17 12 0 25 -8 28 -16z m95 11 c0 -5
-7 -9 -15 -9 -8 0 -12 4 -9 9 3 4 9 8 15 8 5 0 9 -4 9 -8z m220 -12 c0 -5 -4
-10 -10 -10 -5 0 -10 5 -10 10 0 6 5 10 10 10 6 0 10 -4 10 -10z m-30 -15 c11
-13 10 -14 -4 -9 -9 3 -16 10 -16 15 0 13 6 11 20 -6z m-240 1 c0 -3 -4 -8
-10 -11 -5 -3 -10 -1 -10 4 0 6 5 11 10 11 6 0 10 -2 10 -4z m170 -15 c0 -15
-6 -18 -30 -16 -17 1 -33 5 -36 8 -3 3 9 4 26 3 22 -2 29 2 26 11 -3 7 -1 13
4 13 6 0 10 -8 10 -19z m67 -29 c-1 -10 -13 -32 -25 -48 -20 -25 -21 -25 -11
-4 7 14 14 30 15 35 0 6 2 16 2 23 1 6 6 12 12 12 5 0 9 -8 7 -18z m-179 -19
c-5 -6 -16 -9 -24 -6 -22 8 -17 18 10 18 18 0 22 -3 14 -12z m99 -13 c-1 -20
-8 -25 -20 -14 -3 3 0 12 6 20 16 17 16 17 14 -6z m-257 -11 c0 -6 -4 -7 -10
-4 -5 3 -10 11 -10 16 0 6 5 7 10 4 6 -3 10 -11 10 -16z m-135 -9 c3 -5 1 -10
-4 -10 -6 0 -11 5 -11 10 0 6 2 10 4 10 3 0 8 -4 11 -10z m58 -4 c4 -10 1 -13
-8 -9 -8 3 -12 9 -9 14 7 12 11 11 17 -5z m131 -5 c3 -5 -6 -8 -20 -8 -19 0
-22 2 -13 8 18 11 26 11 33 0z m216 -5 c0 -3 -4 -8 -10 -11 -5 -3 -10 -1 -10
4 0 6 5 11 10 11 6 0 10 -2 10 -4z m-265 -16 c3 -5 1 -10 -4 -10 -6 0 -11 5
-11 10 0 6 2 10 4 10 3 0 8 -4 11 -10z m193 -3 c-1 -2 3 -11 11 -20 9 -11 10
-17 2 -17 -6 0 -11 5 -11 10 0 6 -6 10 -14 10 -8 0 -18 5 -22 11 -4 8 1 9 16
4 17 -5 21 -4 15 6 -5 8 -5 11 -1 7 4 -3 6 -8 4 -11z m-377 -30 c-10 -9 -11
-8 -5 6 3 10 9 15 12 12 3 -3 0 -11 -7 -18z m344 1 c6 -4 0 -8 -12 -8 -16 0
-21 4 -16 15 3 9 8 12 12 8 3 -4 11 -11 16 -15z m-277 5 c-10 -2 -18 -9 -18
-14 0 -6 -5 -7 -11 -3 -14 8 8 24 31 23 11 -1 10 -3 -2 -6z m229 -15 c-3 -8
-6 -5 -6 6 -1 11 2 17 5 13 3 -3 4 -12 1 -19z m153 12 c0 -5 -2 -10 -4 -10 -3
0 -8 5 -11 10 -3 6 -1 10 4 10 6 0 11 -4 11 -10z m-340 -15 c0 -8 -4 -15 -10
-15 -5 0 -7 7 -4 15 4 8 8 15 10 15 2 0 4 -7 4 -15z m284 -27 c-4 -6 -9 -6
-14 2 -5 9 -9 9 -14 1 -9 -13 -26 -15 -26 -2 0 11 30 19 47 13 7 -2 10 -9 7
-14z m-64 -2 c0 -3 -4 -8 -10 -11 -5 -3 -10 -1 -10 4 0 6 5 11 10 11 6 0 10
-2 10 -4z m-87 -37 c-10 -3 -21 -1 -25 5 -14 21 -8 26 18 14 23 -11 24 -13 7
-19z m187 14 c0 -5 -14 -28 -30 -53 -16 -25 -30 -42 -30 -38 0 3 -3 14 -6 22
-4 12 -2 15 9 11 16 -7 31 20 20 37 -3 7 -1 8 5 4 7 -4 12 -1 12 8 0 9 5 16
10 16 6 0 10 -3 10 -7z m-93 -25 c-3 -8 -6 -5 -6 6 -1 11 2 17 5 13 3 -3 4
-12 1 -19z m-297 -20 c0 -12 -3 -18 -7 -14 -10 10 -11 46 -1 40 4 -3 8 -15 8
-26z m258 19 c8 -10 6 -13 -9 -13 -19 0 -24 7 -12 19 8 9 9 9 21 -6z m-301 -4
c-4 -3 -2 -12 5 -20 8 -11 7 -12 -6 -7 -18 7 -22 34 -4 34 6 0 8 -3 5 -7z
m178 -3 c3 -5 -1 -10 -10 -10 -9 0 -13 5 -10 10 3 6 8 10 10 10 2 0 7 -4 10
-10z m-58 -22 c-3 -8 -6 -5 -6 6 -1 11 2 17 5 13 3 -3 4 -12 1 -19z m138 12
c-3 -5 -14 -10 -23 -10 -15 0 -15 2 -2 10 20 13 33 13 25 0z m-76 -20 c-6 -5
-18 -6 -26 -3 -19 8 -16 11 13 11 17 0 22 -3 13 -8z m41 -10 c0 -5 -2 -10 -4
-10 -3 0 -8 5 -11 10 -3 6 -1 10 4 10 6 0 11 -4 11 -10z m105 -10 c3 -6 -1 -7
-9 -4 -18 7 -21 14 -7 14 6 0 13 -4 16 -10z m-355 -34 c0 -2 -8 -10 -17 -17
-16 -13 -17 -12 -4 4 13 16 21 21 21 13z m191 -53 c-12 -20 -14 -14 -5 12 4 9
9 14 11 11 3 -2 0 -13 -6 -23z m147 7 c-7 -10 -14 -18 -15 -16 -6 6 9 36 18
36 5 0 4 -9 -3 -20z m49 -22 c-3 -8 -6 -5 -6 6 -1 11 2 17 5 13 3 -3 4 -12 1
-19z m-387 8 c0 -3 -4 -8 -10 -11 -5 -3 -10 -1 -10 4 0 6 5 11 10 11 6 0 10
-2 10 -4z m330 -46 c0 -5 -4 -10 -10 -10 -5 0 -10 5 -10 10 0 6 5 10 10 10 6
0 10 -4 10 -10z m-70 -16 c0 -8 -5 -12 -10 -9 -6 4 -8 11 -5 16 9 14 15 11 15
-7z m100 -48 c0 -3 -4 -8 -10 -11 -5 -3 -10 -1 -10 4 0 6 5 11 10 11 6 0 10
-2 10 -4z m-40 -35 c0 -14 2 -14 10 -1 11 17 13 10 4 -13 -5 -14 -8 -13 -25 1
-23 20 -25 44 -4 36 8 -4 15 -14 15 -23z m-110 9 c0 -5 -5 -10 -11 -10 -5 0
-7 5 -4 10 3 6 8 10 11 10 2 0 4 -4 4 -10z m80 -50 c0 -5 -5 -10 -11 -10 -5 0
-7 5 -4 10 3 6 8 10 11 10 2 0 4 -4 4 -10z m-25 -108 c-3 -3 -11 0 -18 7 -9
10 -8 11 6 5 10 -3 15 -9 12 -12z m-325 -462 c0 -5 -2 -10 -4 -10 -3 0 -8 5
-11 10 -3 6 -1 10 4 10 6 0 11 -4 11 -10z m-15 -50 c-38 -39 -55 -40 -40 -2 4
12 8 13 14 4 5 -9 14 -5 31 13 13 14 26 25 29 25 3 0 -13 -18 -34 -40z"/>
<path d="M4560 8100 c0 -5 4 -10 10 -10 5 0 6 -7 3 -17 -4 -11 -3 -14 5 -9 17
10 15 46 -3 46 -8 0 -15 -4 -15 -10z"/>
<path d="M7195 7780 c3 -5 8 -10 11 -10 2 0 4 5 4 10 0 6 -5 10 -11 10 -5 0
-7 -4 -4 -10z"/>
<path d="M7180 7740 c0 -5 5 -10 10 -10 6 0 10 5 10 10 0 6 -4 10 -10 10 -5 0
-10 -4 -10 -10z"/>
<path d="M7210 7691 c0 -5 5 -13 10 -16 6 -3 10 -2 10 4 0 5 -4 13 -10 16 -5
3 -10 2 -10 -4z"/>
<path d="M6930 7500 c0 -5 5 -10 11 -10 5 0 7 5 4 10 -3 6 -8 10 -11 10 -2 0
-4 -4 -4 -10z"/>
<path d="M6652 7131 c2 -7 7 -12 11 -12 12 1 9 15 -3 20 -7 2 -11 -2 -8 -8z"/>
<path d="M6555 6970 c-3 -5 -1 -10 4 -10 6 0 11 5 11 10 0 6 -2 10 -4 10 -3 0
-8 -4 -11 -10z"/>
<path d="M4870 7986 c0 -2 7 -7 16 -10 8 -3 12 -2 9 4 -6 10 -25 14 -25 6z"/>
<path d="M3950 7324 c0 -8 5 -12 10 -9 6 4 8 11 5 16 -9 14 -15 11 -15 -7z"/>
<path d="M3896 7231 c-3 -5 2 -11 12 -13 11 -3 19 0 19 8 0 16 -23 19 -31 5z"/>
<path d="M3527 7413 c-4 -3 -7 -11 -7 -17 0 -6 5 -5 12 2 6 6 9 14 7 17 -3 3
-9 2 -12 -2z"/>
<path d="M3580 7376 c0 -2 7 -7 16 -10 8 -3 12 -2 9 4 -6 10 -25 14 -25 6z"/>
<path d="M3670 7349 c0 -5 5 -7 10 -4 6 3 10 8 10 11 0 2 -4 4 -10 4 -5 0 -10
-5 -10 -11z"/>
<path d="M3130 7331 c0 -6 4 -13 10 -16 6 -3 7 1 4 9 -7 18 -14 21 -14 7z"/>
<path d="M2002 7138 c5 -15 28 -23 28 -10 0 5 -7 13 -16 16 -10 4 -14 1 -12
-6z"/>
<path d="M4322 6952 c-22 -27 -28 -42 -21 -53 8 -11 15 -8 39 19 29 31 40 72
21 72 -5 0 -23 -17 -39 -38z"/>
<path d="M4133 6879 c-24 -11 -43 -25 -43 -30 0 -13 44 -11 60 4 7 6 2 -2 -12
-20 -14 -18 -29 -50 -33 -72 -3 -21 -15 -47 -26 -57 -20 -18 -26 -59 -10 -68
14 -9 40 4 46 23 3 10 36 37 74 62 44 28 76 57 87 79 11 19 24 39 31 43 7 4
13 15 13 22 0 17 -26 20 -35 4 -5 -6 -11 -4 -19 6 -20 27 -85 29 -133 4z m111
-42 c-6 -18 -43 -39 -54 -32 -15 9 -12 25 3 19 7 -2 21 2 32 10 25 19 26 19
19 3z"/>
<path d="M4329 6715 c-17 -17 -145 -55 -186 -55 -20 0 -24 -3 -16 -11 31 -31
243 32 243 73 0 13 -24 9 -41 -7z"/>
<path d="M4243 6360 c-28 -11 -21 -38 12 -46 30 -7 67 13 63 34 -4 20 -42 26
-75 12z"/>
<path d="M4153 6270 c-25 -10 -30 -34 -10 -47 14 -9 78 -33 90 -33 5 0 6 4 3
9 -3 5 0 11 8 14 15 6 11 43 -6 53 -17 11 -63 13 -85 4z"/>
<path d="M4585 6270 c-11 -5 -35 -9 -53 -9 -43 -1 -85 -23 -107 -57 -18 -27
-17 -28 8 -50 33 -28 31 -73 -3 -86 l-24 -9 24 -22 c19 -18 38 -23 97 -25 72
-3 135 -21 148 -42 3 -5 12 -10 18 -10 16 0 39 38 31 51 -3 6 -7 46 -8 89 0
48 -6 84 -13 92 -7 6 -13 23 -13 36 0 13 -6 29 -13 36 -14 15 -63 18 -92 6z
m78 -45 c-3 -9 -8 -14 -10 -11 -3 3 -2 9 2 15 9 16 15 13 8 -4z m-63 -61 c-29
-59 -76 -121 -86 -112 -2 3 2 18 11 34 8 16 15 34 15 40 0 9 80 100 87 99 1 0
-11 -28 -27 -61z"/>
<path d="M3600 6072 c0 -5 7 -9 15 -9 8 0 15 4 15 9 0 4 -7 8 -15 8 -8 0 -15
-4 -15 -8z"/>
<path d="M3590 5978 c0 -4 0 -10 0 -13 0 -3 2 -4 5 -2 10 5 36 -44 29 -55 -5
-8 -2 -9 10 -5 10 4 20 7 22 7 3 0 2 5 -2 11 -3 6 0 15 7 20 23 14 32 10 18
-8 -11 -15 -11 -16 1 -6 8 8 19 9 30 3 12 -6 17 -5 17 5 0 8 -4 12 -8 9 -4 -2
-10 0 -13 5 -4 5 -19 9 -35 9 -32 -1 -54 9 -46 22 3 5 -4 8 -15 7 -11 -1 -20
-5 -20 -9z"/>
<path d="M3846 5971 c-5 -8 -3 -17 5 -22 17 -11 39 -12 23 -1 -6 4 -13 14 -16
22 -3 11 -6 11 -12 1z"/>
<path d="M3962 5949 c3 -8 -3 -23 -14 -35 -18 -20 -16 -60 3 -48 5 3 9 -3 9
-13 1 -15 3 -13 14 6 8 15 15 20 19 12 4 -8 5 -7 3 1 -2 8 -15 12 -32 10 -25
-2 -27 -1 -13 10 22 18 33 55 18 64 -7 4 -10 2 -7 -7z"/>
<path d="M3845 5930 c3 -5 2 -10 -4 -10 -6 0 -8 -7 -5 -15 7 -17 23 -19 44 -5
13 9 12 12 -4 25 -23 17 -40 20 -31 5z m25 -20 c0 -5 -4 -10 -10 -10 -5 0 -10
5 -10 10 0 6 5 10 10 10 6 0 10 -4 10 -10z"/>
<path d="M3690 5910 c0 -5 5 -10 11 -10 5 0 7 5 4 10 -3 6 -8 10 -11 10 -2 0
-4 -4 -4 -10z"/>
<path d="M3985 5911 c-3 -5 4 -12 15 -16 14 -4 19 -13 16 -28 -1 -12 -1 -16 1
-9 3 6 9 12 15 12 6 0 6 6 -2 15 -15 18 1 20 18 3 9 -9 12 -9 12 -1 0 22 -63
42 -75 24z"/>
<path d="M3660 5890 c-9 -6 -10 -10 -3 -10 6 0 15 5 18 10 8 12 4 12 -15 0z"/>
<path d="M3900 5882 c0 -5 7 -15 15 -22 8 -7 15 -8 15 -2 0 5 -7 15 -15 22 -8
7 -15 8 -15 2z"/>
<path d="M3680 5871 c0 -6 4 -12 8 -15 5 -3 9 1 9 9 0 8 -4 15 -9 15 -4 0 -8
-4 -8 -9z"/>
<path d="M3722 5871 c-11 -7 -11 -9 2 -14 10 -4 16 -1 16 8 0 17 -1 17 -18 6z"/>
<path d="M3800 5870 c0 -5 5 -10 11 -10 5 0 7 5 4 10 -3 6 -8 10 -11 10 -2 0
-4 -4 -4 -10z"/>
<path d="M3849 5869 c16 -6 28 -6 35 1 7 7 -1 10 -24 9 -33 0 -34 -1 -11 -10z"/>
<path d="M3870 5841 c0 -6 4 -13 10 -16 6 -3 7 1 4 9 -7 18 -14 21 -14 7z"/>
<path d="M4115 5840 c3 -5 8 -10 11 -10 2 0 4 5 4 10 0 6 -5 10 -11 10 -5 0
-7 -4 -4 -10z"/>
<path d="M4030 5836 c0 -2 7 -9 15 -16 9 -7 15 -8 15 -2 0 5 -7 12 -15 16 -8
3 -15 4 -15 2z"/>
<path d="M3636 5822 c-2 -4 -1 -14 5 -22 7 -12 9 -10 9 8 0 23 -5 28 -14 14z"/>
<path d="M3735 5800 c3 -5 8 -10 11 -10 2 0 4 5 4 10 0 6 -5 10 -11 10 -5 0
-7 -4 -4 -10z"/>
<path d="M4207 5761 c3 -12 1 -21 -6 -21 -6 0 -11 -4 -11 -10 0 -5 8 -6 17 -3
12 5 15 2 10 -9 -4 -12 -1 -14 14 -11 20 6 20 30 0 26 -6 -2 -11 4 -11 13 0 9
5 12 11 8 7 -4 10 -1 7 7 -3 8 -12 15 -21 17 -11 2 -14 -2 -10 -17z"/>
<path d="M4070 5760 c0 -5 5 -10 11 -10 5 0 7 5 4 10 -3 6 -8 10 -11 10 -2 0
-4 -4 -4 -10z"/>
<path d="M3674 5739 c-3 -6 -1 -16 4 -21 8 -8 11 -5 9 11 -1 24 -3 25 -13 10z"/>
<path d="M4152 5720 c7 -10 14 -18 15 -16 6 6 -9 36 -18 36 -5 0 -4 -9 3 -20z"/>
<path d="M3980 5691 c0 -6 5 -13 10 -16 6 -3 10 1 10 9 0 9 -4 16 -10 16 -5 0
-10 -4 -10 -9z"/>
<path d="M4085 5679 c-10 -30 0 -33 13 -4 6 14 7 25 2 25 -5 0 -12 -9 -15 -21z"/>
<path d="M4128 5693 c7 -3 16 -2 19 1 4 3 -2 6 -13 5 -11 0 -14 -3 -6 -6z"/>
<path d="M4244 5685 c3 -8 0 -15 -7 -15 -7 0 -3 -8 8 -17 16 -13 17 -15 3 -10
-10 4 -18 2 -18 -4 0 -6 -5 -7 -11 -3 -8 4 -9 -1 -4 -16 6 -18 4 -22 -8 -17
-12 4 -14 2 -10 -10 5 -12 3 -14 -7 -8 -9 5 -11 4 -6 -3 4 -7 2 -12 -3 -12 -6
0 -11 -8 -11 -17 -1 -15 -3 -15 -20 5 -10 12 -21 18 -24 13 -4 -5 0 -12 6 -14
10 -4 10 -6 1 -6 -22 -2 -14 -17 10 -18 12 -1 33 -5 46 -8 21 -5 23 -4 12 9
-10 11 -8 18 6 33 42 41 74 113 51 113 -5 0 -6 5 -3 10 3 6 1 10 -5 10 -7 0
-10 -7 -6 -15z"/>
<path d="M4153 5652 c-1 -22 0 -24 9 -8 6 10 6 22 2 26 -5 5 -10 -3 -11 -18z"/>
<path d="M3781 5663 c-1 -17 16 -25 25 -12 4 7 3 9 -4 5 -5 -3 -13 0 -15 6 -4
9 -6 10 -6 1z"/>
<path d="M3876 5654 c-4 -9 -5 -19 -2 -21 8 -8 46 17 45 30 0 9 -2 8 -6 -1 -4
-9 -9 -10 -18 -2 -9 8 -14 6 -19 -6z"/>
<path d="M3742 5620 c-8 -13 -8 -21 -1 -26 16 -10 32 12 22 30 -7 14 -10 13
-21 -4z"/>
<path d="M4030 5631 c0 -5 5 -13 10 -16 6 -3 10 -2 10 4 0 5 -4 13 -10 16 -5
3 -10 2 -10 -4z"/>
<path d="M3836 5615 c-3 -8 -1 -15 4 -15 13 0 22 18 11 24 -5 3 -11 -1 -15 -9z"/>
<path d="M4113 5615 c0 -7 6 -11 14 -8 7 3 13 6 13 8 0 2 -6 5 -13 8 -8 3 -14
-1 -14 -8z"/>
<path d="M3950 5610 c-13 -8 -12 -10 3 -10 9 0 17 5 17 10 0 12 -1 12 -20 0z"/>
<path d="M3894 5557 c-10 -33 -9 -34 16 -33 17 1 26 7 26 18 0 14 -3 15 -15 5
-12 -10 -13 -8 -7 16 9 39 -7 34 -20 -6z"/>
<path d="M3945 5581 c-3 -5 -1 -12 5 -16 5 -3 10 1 10 9 0 18 -6 21 -15 7z"/>
<path d="M3985 5570 c4 -6 1 -18 -7 -27 -9 -12 -9 -15 -1 -9 7 4 18 16 23 27
9 15 7 19 -5 19 -9 0 -13 -5 -10 -10z"/>
<path d="M4087 5565 c-16 -12 -16 -13 -1 -19 21 -8 36 5 26 21 -5 8 -12 8 -25
-2z"/>
<path d="M4030 5530 c-8 -5 -18 -6 -22 -4 -4 3 -8 1 -8 -5 0 -6 12 -8 29 -5
26 6 29 4 24 -15 -5 -21 -23 -30 -23 -11 0 5 -6 7 -13 4 -8 -3 -26 0 -42 6
-15 6 -30 8 -34 5 -7 -8 21 -26 34 -21 6 2 12 -5 12 -15 2 -24 -24 -25 -30 -1
-4 13 -5 11 -6 -5 -1 -18 4 -23 22 -23 13 0 28 -5 34 -11 8 -8 23 -3 57 20 49
34 51 38 36 61 -8 13 -11 11 -16 -7 -4 -13 -11 -23 -16 -23 -6 0 -8 9 -5 20 6
24 -13 42 -33 30z m4 -89 c-2 -2 -11 -1 -20 3 -14 5 -14 9 -3 22 12 14 14 14
20 -3 3 -10 5 -20 3 -22z"/>
<path d="M1980 5012 c0 -14 85 -193 103 -216 19 -26 32 -4 15 26 -7 13 -28 61
-48 108 -23 54 -41 86 -53 88 -9 2 -17 -1 -17 -6z"/>
<path d="M2397 4704 c-6 -7 12 -64 24 -78 6 -6 13 -6 20 1 8 8 6 19 -5 41 -17
33 -30 45 -39 36z"/>
<path d="M7345 5290 c-3 -6 1 -7 9 -4 18 7 21 14 7 14 -6 0 -13 -4 -16 -10z"/>
<path d="M7231 5255 c-18 -8 -37 -13 -41 -10 -11 7 -42 -43 -35 -55 3 -6 1
-18 -4 -27 -8 -14 -10 -15 -11 -3 0 13 -1 13 -10 0 -15 -23 -13 -26 20 -28 26
-2 33 3 44 28 7 17 15 28 18 24 9 -9 68 28 68 42 0 17 39 24 66 12 31 -14 45
-1 20 18 -25 18 -91 17 -135 -1z"/>
<path d="M7411 5244 c0 -11 3 -14 6 -6 3 7 2 16 -1 19 -3 4 -6 -2 -5 -13z"/>
<path d="M7060 5205 c0 -8 5 -15 11 -15 5 0 7 -4 4 -10 -3 -5 -1 -10 4 -10 6
0 11 4 11 9 0 5 3 16 6 25 4 12 0 16 -15 16 -12 0 -21 -6 -21 -15z"/>
<path d="M6658 5128 c7 -7 16 -7 28 0 14 8 13 10 -10 10 -18 0 -24 -4 -18 -10z"/>
<path d="M6788 5133 c7 -3 16 -2 19 1 4 3 -2 6 -13 5 -11 0 -14 -3 -6 -6z"/>
<path d="M7318 4941 c19 -32 68 -54 59 -27 -2 6 -10 11 -18 11 -8 0 -25 11
-38 25 l-24 25 21 -34z"/>
<path d="M1640 4645 c0 -13 31 -65 39 -65 18 0 19 15 4 41 -15 25 -43 40 -43
24z"/>
<path d="M6280 5131 c0 -10 25 -21 48 -21 12 1 10 5 -8 15 -29 17 -40 18 -40
6z"/>
<path d="M7398 4359 c-19 -20 -22 -29 -10 -29 4 0 15 12 25 25 21 29 10 32
-15 4z"/>
<path d="M7427 4319 c7 -7 15 -10 18 -7 3 3 -2 9 -12 12 -14 6 -15 5 -6 -5z"/>
<path d="M7506 4182 c-3 -5 3 -13 13 -19 14 -9 18 -8 18 3 0 15 -24 27 -31 16z"/>
<path d="M7490 4156 c0 -2 7 -9 15 -16 9 -7 15 -8 15 -2 0 5 -7 12 -15 16 -8
3 -15 4 -15 2z"/>
<path d="M7416 4131 c-3 -5 1 -11 9 -14 9 -4 12 -1 8 9 -6 16 -10 17 -17 5z"/>
<path d="M7511 4104 c0 -11 3 -14 6 -6 3 7 2 16 -1 19 -3 4 -6 -2 -5 -13z"/>
<path d="M7380 4086 c0 -2 7 -9 15 -16 9 -7 15 -8 15 -2 0 5 -7 12 -15 16 -8
3 -15 4 -15 2z"/>
<path d="M7450 4046 c0 -8 4 -17 8 -20 4 -2 8 4 8 15 0 10 -4 19 -8 19 -4 0
-8 -6 -8 -14z"/>
<path d="M7385 4029 c-4 -6 -5 -12 -2 -15 2 -3 7 2 10 11 7 17 1 20 -8 4z"/>
<path d="M7652 4028 c-8 -8 -9 -15 0 -25 9 -11 4 -13 -26 -9 -20 2 -36 3 -36
1 0 -2 -3 -10 -6 -19 -4 -11 -1 -16 10 -16 9 0 15 3 15 8 -3 18 2 26 9 15 4
-7 17 -10 28 -7 15 4 21 14 21 35 0 33 0 32 -15 17z"/>
<path d="M7318 4023 c6 -2 12 -11 12 -19 0 -8 4 -14 9 -14 6 0 9 9 8 20 -1 13
-8 20 -22 19 -11 0 -14 -3 -7 -6z"/>
<path d="M7537 3990 c-9 -11 -13 -20 -8 -20 11 0 35 29 29 35 -2 2 -12 -4 -21
-15z"/>
<path d="M7476 3991 c-3 -5 1 -11 9 -14 9 -4 12 -1 8 9 -6 16 -10 17 -17 5z"/>
<path d="M7430 3970 c0 -8 5 -22 10 -30 9 -13 10 -13 10 0 0 8 -5 22 -10 30
-9 13 -10 13 -10 0z"/>
<path d="M7650 3959 c0 -6 -7 -8 -17 -4 -14 5 -15 3 -6 -6 9 -9 17 -8 34 5 19
13 20 16 6 16 -9 0 -17 -5 -17 -11z"/>
<path d="M7658 3940 c-2 -6 -14 -12 -27 -13 -19 -1 -21 -3 -8 -11 13 -9 13
-12 0 -33 -10 -16 -12 -23 -4 -23 7 0 9 -4 6 -10 -3 -5 -1 -10 4 -10 6 0 10
10 8 21 -1 12 4 24 12 27 8 3 11 0 7 -6 -3 -6 -3 -13 2 -16 4 -2 12 15 18 40
8 34 7 44 -2 44 -7 0 -14 -5 -16 -10z"/>
<path d="M7301 3924 c0 -11 3 -14 6 -6 3 7 2 16 -1 19 -3 4 -6 -2 -5 -13z"/>
<path d="M7564 3929 c13 -8 15 -14 7 -19 -9 -5 -8 -10 4 -20 13 -11 15 -10 9
4 -4 10 -1 16 7 16 8 0 5 6 -7 15 -10 8 -23 14 -29 14 -5 0 -2 -4 9 -10z"/>
<path d="M7470 3879 c0 -5 5 -7 10 -4 6 3 10 8 10 11 0 2 -4 4 -10 4 -5 0 -10
-5 -10 -11z"/>
<path d="M7443 3861 c6 -24 -8 -29 -17 -6 -3 8 -13 15 -23 14 -14 0 -15 -2 -3
-6 8 -4 20 -13 26 -22 10 -12 15 -13 27 -3 17 15 30 2 22 -20 -4 -9 0 -15 8
-15 21 0 3 49 -25 66 -19 12 -20 11 -15 -8z"/>
<path d="M7535 3846 c0 -13 3 -22 8 -19 4 2 7 13 7 24 0 10 -3 19 -7 19 -5 0
-8 -11 -8 -24z"/>
<path d="M7570 3860 c0 -5 5 -10 10 -10 6 0 10 5 10 10 0 6 -4 10 -10 10 -5 0
-10 -4 -10 -10z"/>
<path d="M7283 3830 c3 -10 0 -21 -5 -22 -6 -2 -3 -10 6 -17 11 -9 16 -10 16
-2 0 17 28 13 38 -5 6 -12 11 -13 16 -5 5 7 -7 17 -31 28 -21 9 -32 18 -25 20
14 5 6 23 -10 23 -6 0 -8 -9 -5 -20z"/>
<path d="M7390 3841 c0 -6 5 -13 10 -16 6 -3 10 1 10 9 0 9 -4 16 -10 16 -5 0
-10 -4 -10 -9z"/>
<path d="M7655 3841 c-3 -5 -1 -12 5 -16 5 -3 10 1 10 9 0 18 -6 21 -15 7z"/>
<path d="M7358 3813 c7 -3 16 -2 19 1 4 3 -2 6 -13 5 -11 0 -14 -3 -6 -6z"/>
<path d="M7642 3801 c-11 -7 -11 -9 2 -14 10 -4 16 -1 16 8 0 17 -1 17 -18 6z"/>
<path d="M7395 3791 c-3 -5 -1 -12 4 -15 5 -3 11 1 15 9 6 16 -9 21 -19 6z"/>
<path d="M7270 3773 c0 -15 18 -35 23 -27 3 5 -1 15 -9 22 -8 7 -14 9 -14 5z"/>
<path d="M7312 3755 c0 -16 2 -22 5 -12 2 9 2 23 0 30 -3 6 -5 -1 -5 -18z"/>
<path d="M7437 3769 c7 -7 15 -10 18 -7 3 3 -2 9 -12 12 -14 6 -15 5 -6 -5z"/>
<path d="M7535 3770 c3 -5 8 -10 11 -10 2 0 4 5 4 10 0 6 -5 10 -11 10 -5 0
-7 -4 -4 -10z"/>
<path d="M7640 3753 c0 -14 -2 -15 -9 -5 -7 11 -9 11 -14 -2 -4 -9 -1 -15 6
-13 7 1 11 -8 9 -22 -4 -35 8 -19 18 23 4 21 4 36 -1 36 -5 0 -9 -8 -9 -17z"/>
<path d="M7350 3750 c-9 -6 -10 -10 -3 -10 6 0 15 5 18 10 8 12 4 12 -15 0z"/>
<path d="M7420 3751 c0 -6 4 -13 10 -16 6 -3 7 1 4 9 -7 18 -14 21 -14 7z"/>
<path d="M7515 3730 c-26 -29 -15 -32 13 -4 12 13 19 24 14 24 -5 0 -17 -9
-27 -20z"/>
<path d="M7586 3731 c-3 -5 1 -11 9 -14 9 -4 12 -1 8 9 -6 16 -10 17 -17 5z"/>
<path d="M7260 3705 c7 -9 15 -13 17 -11 7 7 -7 26 -19 26 -6 0 -6 -6 2 -15z"/>
<path d="M7521 3684 c0 -11 3 -14 6 -6 3 7 2 16 -1 19 -3 4 -6 -2 -5 -13z"/>
<path d="M7622 3660 c0 -14 2 -19 5 -12 2 6 2 18 0 25 -3 6 -5 1 -5 -13z"/>
<path d="M7243 3663 c-7 -2 -13 -15 -13 -27 0 -12 -5 -27 -12 -34 -7 -7 -8
-12 -2 -12 6 0 19 10 30 22 10 12 13 18 7 14 -16 -9 -16 -1 -3 25 6 10 9 19 8
18 -2 0 -9 -3 -15 -6z"/>
<path d="M7590 3655 c-7 -9 -8 -15 -2 -15 5 0 12 7 16 15 3 8 4 15 2 15 -2 0
-9 -7 -16 -15z"/>
<path d="M7276 3645 c4 -8 8 -15 10 -15 2 0 4 7 4 15 0 8 -4 15 -10 15 -5 0
-7 -7 -4 -15z"/>
<path d="M7486 3646 c-18 -9 -24 -15 -15 -18 8 -3 23 3 33 13 22 22 21 22 -18
5z"/>
<path d="M7407 3628 c-25 -20 -25 -40 2 -43 21 -2 22 0 7 10 -20 15 -21 25 -1
25 8 0 15 5 15 10 0 13 -3 13 -23 -2z"/>
<path d="M7550 3620 c0 -5 5 -10 11 -10 5 0 7 5 4 10 -3 6 -8 10 -11 10 -2 0
-4 -4 -4 -10z"/>
<path d="M7303 3605 c0 -8 4 -12 9 -9 5 3 6 10 3 15 -9 13 -12 11 -12 -6z"/>
<path d="M7515 3610 c-3 -5 -2 -10 4 -10 5 0 13 5 16 10 3 6 2 10 -4 10 -5 0
-13 -4 -16 -10z"/>
<path d="M7457 3593 c-3 -5 5 -8 18 -8 13 0 21 3 18 8 -2 4 -10 7 -18 7 -8 0
-16 -3 -18 -7z"/>
<path d="M7380 3551 c0 -5 7 -11 14 -14 10 -4 13 -1 9 9 -6 15 -23 19 -23 5z"/>
<path d="M7508 4313 c5 -21 7 -23 10 -9 2 10 0 22 -6 28 -6 6 -7 0 -4 -19z"/>
<path d="M7541 4306 c-10 -12 -8 -13 8 -9 12 3 21 9 21 14 0 14 -16 11 -29 -5z"/>
<path d="M4305 10490 c3 -5 8 -10 11 -10 2 0 4 5 4 10 0 6 -5 10 -11 10 -5 0
-7 -4 -4 -10z"/>
<path d="M8795 10390 c-3 -5 -1 -10 4 -10 6 0 11 5 11 10 0 6 -2 10 -4 10 -3
0 -8 -4 -11 -10z"/>
<path d="M1930 10161 c0 -5 5 -13 10 -16 6 -3 10 -2 10 4 0 5 -4 13 -10 16 -5
3 -10 2 -10 -4z"/>
<path d="M10425 10060 c-3 -5 -1 -10 4 -10 6 0 11 5 11 10 0 6 -2 10 -4 10 -3
0 -8 -4 -11 -10z"/>
<path d="M2175 9820 c3 -5 11 -10 16 -10 6 0 7 5 4 10 -3 6 -11 10 -16 10 -6
0 -7 -4 -4 -10z"/>
<path d="M5576 9633 c-6 -14 -5 -15 5 -6 7 7 10 15 7 18 -3 3 -9 -2 -12 -12z"/>
<path d="M5695 9280 c3 -5 10 -10 16 -10 5 0 9 5 9 10 0 6 -7 10 -16 10 -8 0
-12 -4 -9 -10z"/>
<path d="M5440 9150 c-13 -8 -12 -10 3 -10 9 0 17 5 17 10 0 12 -1 12 -20 0z"/>
<path d="M3150 9139 c0 -5 5 -7 10 -4 6 3 10 8 10 11 0 2 -4 4 -10 4 -5 0 -10
-5 -10 -11z"/>
<path d="M5710 9029 c0 -5 5 -7 10 -4 6 3 10 8 10 11 0 2 -4 4 -10 4 -5 0 -10
-5 -10 -11z"/>
<path d="M2352 9009 c2 -7 10 -15 17 -17 8 -3 12 1 9 9 -2 7 -10 15 -17 17 -8
3 -12 -1 -9 -9z"/>
<path d="M5720 8959 c0 -5 5 -7 10 -4 6 3 10 8 10 11 0 2 -4 4 -10 4 -5 0 -10
-5 -10 -11z"/>
<path d="M6448 8953 c7 -3 16 -2 19 1 4 3 -2 6 -13 5 -11 0 -14 -3 -6 -6z"/>
<path d="M5345 8610 c-9 -15 4 -30 26 -30 24 0 24 12 -1 27 -12 8 -21 9 -25 3z"/>
<path d="M8037 8496 c-4 -10 -1 -13 9 -9 7 3 14 9 14 14 0 14 -17 10 -23 -5z"/>
<path d="M5410 8410 c-18 -14 -22 -22 -14 -30 16 -16 66 5 62 27 -4 24 -20 25
-48 3z"/>
<path d="M8390 8420 c0 -5 5 -10 10 -10 6 0 10 5 10 10 0 6 -4 10 -10 10 -5 0
-10 -4 -10 -10z"/>
<path d="M8610 8390 c0 -5 5 -10 11 -10 5 0 7 5 4 10 -3 6 -8 10 -11 10 -2 0
-4 -4 -4 -10z"/>
<path d="M5199 8350 c-9 -5 -48 -17 -85 -26 -72 -16 -194 -69 -194 -83 0 -5
-14 -11 -32 -15 -67 -13 -108 -27 -108 -36 0 -6 13 -10 29 -10 24 0 28 -3 24
-20 -7 -26 5 -25 49 5 37 25 113 45 170 45 16 0 49 9 73 20 25 11 72 23 105
27 63 6 80 17 61 36 -8 8 -6 16 6 29 12 13 13 22 6 29 -8 8 -13 8 -17 0 -9
-14 -46 -14 -46 -1 0 13 -20 12 -41 0z"/>
<path d="M5730 8330 c0 -5 5 -10 10 -10 6 0 10 5 10 10 0 6 -4 10 -10 10 -5 0
-10 -4 -10 -10z"/>
<path d="M9010 8250 c0 -5 5 -10 10 -10 6 0 10 5 10 10 0 6 -4 10 -10 10 -5 0
-10 -4 -10 -10z"/>
<path d="M8720 8200 c0 -5 5 -10 10 -10 6 0 10 5 10 10 0 6 -4 10 -10 10 -5 0
-10 -4 -10 -10z"/>
<path d="M8925 8170 c-3 -5 -1 -10 4 -10 6 0 11 5 11 10 0 6 -2 10 -4 10 -3 0
-8 -4 -11 -10z"/>
<path d="M9601 8131 c-8 -6 -9 -11 -3 -15 6 -3 14 -1 17 5 9 14 2 20 -14 10z"/>
<path d="M1580 7681 c-6 -12 -7 -21 -1 -21 10 0 24 30 17 37 -2 3 -9 -5 -16
-16z"/>
<path d="M8895 7600 c-3 -5 -1 -10 4 -10 6 0 11 5 11 10 0 6 -2 10 -4 10 -3 0
-8 -4 -11 -10z"/>
<path d="M9910 7429 c0 -5 5 -7 10 -4 6 3 10 8 10 11 0 2 -4 4 -10 4 -5 0 -10
-5 -10 -11z"/>
<path d="M10382 7261 c4 -13 18 -16 19 -4 0 4 -5 9 -11 12 -7 2 -11 -2 -8 -8z"/>
<path d="M1670 6470 c0 -5 5 -10 11 -10 5 0 7 5 4 10 -3 6 -8 10 -11 10 -2 0
-4 -4 -4 -10z"/>
<path d="M10015 6270 c3 -5 8 -10 11 -10 2 0 4 5 4 10 0 6 -5 10 -11 10 -5 0
-7 -4 -4 -10z"/>
<path d="M7630 5299 c0 -5 5 -7 10 -4 6 3 10 8 10 11 0 2 -4 4 -10 4 -5 0 -10
-5 -10 -11z"/>
<path d="M8330 5010 c0 -5 5 -10 11 -10 5 0 7 5 4 10 -3 6 -8 10 -11 10 -2 0
-4 -4 -4 -10z"/>
<path d="M2458 3701 c-36 -21 -35 -31 2 -31 19 0 33 6 37 16 9 25 -10 32 -39
15z"/>
<path d="M5269 3533 c-13 -16 -12 -17 4 -4 16 13 21 21 13 21 -2 0 -10 -8 -17
-17z"/>
<path d="M5990 3406 c0 -2 8 -10 18 -17 15 -13 16 -12 3 4 -13 16 -21 21 -21
13z"/>
<path d="M4700 3300 c0 -5 5 -10 10 -10 6 0 10 5 10 10 0 6 -4 10 -10 10 -5 0
-10 -4 -10 -10z"/>
<path d="M9300 2780 c0 -5 5 -10 10 -10 6 0 10 5 10 10 0 6 -4 10 -10 10 -5 0
-10 -4 -10 -10z"/>
<path d="M9970 2770 c0 -5 5 -10 11 -10 5 0 7 5 4 10 -3 6 -8 10 -11 10 -2 0
-4 -4 -4 -10z"/>
<path d="M5046 1841 c-4 -5 -2 -12 3 -15 5 -4 12 -2 15 3 4 5 2 12 -3 15 -5 4
-12 2 -15 -3z"/>
<path d="M4685 1420 c-3 -5 -1 -10 4 -10 6 0 11 5 11 10 0 6 -2 10 -4 10 -3 0
-8 -4 -11 -10z"/>
<path d="M1590 292 c0 -5 7 -13 16 -16 10 -4 14 -1 12 6 -5 15 -28 23 -28 10z"/>
</g>
</svg>
